<svg width="128" height="121" viewBox="0 0 128 121" fill="none" xmlns="http://www.w3.org/2000/svg">
<path d="M7.67736 27.9443C8.27377 28.3378 10.2922 26.6783 12.0441 24.7124C12.3018 24.2237 12.589 23.7511 12.9042 23.2973C12.849 23.2973 12.7937 23.3153 12.7399 23.3153C12.4955 23.321 12.255 23.2531 12.0496 23.1206C11.4974 22.7575 11.3455 22.1073 11.4008 21.3535C11.4082 21.3471 11.4132 21.3383 11.4146 21.3286C10.1941 22.5083 9.05661 23.7709 8.01008 25.1072C8.02418 25.1019 8.03657 25.0928 8.04597 25.081C7.4827 26.4643 7.24386 27.6585 7.67736 27.9443Z" fill="#959595"/>
<path d="M14.8865 22.3806C14.8764 22.4055 14.8634 22.4291 14.8479 22.451C13.8318 23.6356 12.2759 25.919 12.4209 27.0069C12.427 27.0872 12.4515 27.1651 12.4924 27.2345C12.5333 27.3039 12.5896 27.363 12.6569 27.4073C13.2257 27.7911 15.28 26.3622 17.2128 24.5633C16.9343 24.5672 16.6609 24.4884 16.4273 24.3369C16.2292 24.2037 16.0625 24.029 15.9388 23.8249C15.8151 23.6209 15.7373 23.3923 15.7107 23.1551C15.6459 22.6581 15.766 22.081 15.9869 21.4888C15.636 21.8052 15.2687 22.1029 14.8865 22.3806Z" fill="#959595"/>
<path d="M11.405 27.1765C10.7768 29.2473 8.32217 36.2758 2.81094 41.0415C4.09763 41.1326 6.24027 41.0788 8.13027 40.053C12.0359 37.9338 16.0106 31.1056 16.8845 29.5441C16.3157 28.7448 16.6083 27.3463 17.1026 26.0637C15.722 27.2731 14.0405 28.4783 12.838 28.4783C12.5688 28.4859 12.3038 28.4108 12.0787 28.263C11.896 28.1398 11.7414 27.9792 11.6253 27.792C11.5092 27.6047 11.4341 27.3949 11.405 27.1765Z" fill="#959595"/>
<path d="M12.626 22.2593C13.2363 22.661 15.7944 20.5432 18.1359 17.6965C17.791 17.4057 17.4814 17.0753 17.2137 16.7121C17.2137 16.7121 17.2137 16.7121 17.2137 16.7039C16.9583 16.8695 16.7001 17.0407 16.4419 17.2202C15.1253 18.1281 13.8644 19.1142 12.6661 20.1732C12.6837 20.1663 12.7 20.1565 12.7144 20.1442C12.3665 21.1907 12.274 22.0259 12.626 22.2593Z" fill="#959595"/>
<path d="M22.0653 31.2246C22.0129 31.2001 21.9621 31.1719 21.9135 31.1404C21.0147 30.5454 21.0644 29.4175 21.4054 28.3296C20.301 29.278 19.0309 30.1243 18.0217 30.1243C17.9323 30.1237 17.8431 30.1154 17.7552 30.0995C16.971 31.509 14.1657 36.3327 10.8965 39.2941C16.746 40.3171 20.9498 33.3286 22.0653 31.2246Z" fill="#959595"/>
<path d="M19.3459 23.8023C19.3373 23.828 19.3267 23.8529 19.3142 23.8769C19.311 23.8916 19.3064 23.9059 19.3003 23.9197C18.0426 26.0361 17.1425 28.5943 17.8024 29.0278C18.4209 29.4419 20.4048 27.9854 22.1623 26.1879C22.1037 26.1613 22.0473 26.1299 21.9938 26.094C20.8797 25.3554 21.2773 23.4903 21.9262 21.8516C21.1268 22.5784 20.2631 23.2313 19.3459 23.8023Z" fill="#959595"/>
<path d="M18.8353 75.8791C14.9338 65.1603 10.5381 54.8944 11.4741 42.9608C11.5473 41.6727 13.0397 41.7031 12.961 43.0464C11.8717 54.6432 16.4359 64.771 20.2448 75.3614C22.5821 73.9808 23.2089 71.678 22.1017 68.3853C19.2426 58.4839 16.3862 48.8669 17.96 38.1399C16.3323 39.4666 14.3705 40.4495 12.1354 40.4495C11.3821 40.4448 10.6332 40.3356 9.90992 40.1251C9.50501 40.4363 9.0772 40.7164 8.63013 40.9631C6.92375 41.8895 5.07517 42.1145 3.68079 42.1145C3.01358 42.116 2.34734 42.0634 1.68863 41.9571C1.32416 42.2332 0.944508 42.4955 0.553807 42.7468C0.629278 42.2664 0.713033 41.7864 0.80507 41.3069C6.0885 37.4675 8.88968 31.1804 9.99689 28.1211C9.30661 28.6471 8.56939 29.0184 7.84873 29.0184C7.58781 29.0235 7.33142 28.9499 7.11289 28.8072C6.62693 28.4855 6.45159 27.9375 6.45435 27.2886C6.4598 27.2788 6.46309 27.268 6.46402 27.2568C1.44842 34.7492 -0.427777 43.6497 0.0802722 52.7297C0.952791 68.3301 8.0144 77.7249 13.1487 91.5513C16.0383 91.1744 17.5237 88.1123 16.4055 85.4409C11.5348 73.3885 5.18837 62.4945 5.46449 48.9704C5.46449 47.681 6.95412 47.6244 6.95412 48.9704C6.49301 61.8511 12.8906 72.7714 17.5472 84.2881C19.8969 82.3194 20.3263 79.5164 18.8353 75.8791Z" fill="#959595"/>
<path d="M19.9062 18.6608C19.636 18.583 19.3739 18.4794 19.1234 18.3516C18.0328 19.6907 16.5832 21.9107 16.7323 23.0165C16.7391 23.1088 16.767 23.1982 16.8136 23.2781C16.8603 23.358 16.9245 23.4263 17.0015 23.4776C17.7898 24.0064 20.9181 21.6097 23.3521 19.0377C23.2541 18.8996 23.1698 18.7713 23.1036 18.658C22.0576 18.9477 20.9527 18.9486 19.9062 18.6608Z" fill="#959595"/>
<path d="M23.6589 26.1319C22.7091 27.6229 21.8021 29.8222 22.4896 30.2736C22.5844 30.3311 22.6956 30.3553 22.8058 30.3426C22.8232 30.3413 22.8408 30.3413 22.8582 30.3426C23.7266 30.2336 25.3929 28.8033 26.7597 27.1825C26.1398 26.4536 26.3193 25.1559 26.7445 23.8816C25.7671 24.8356 24.653 25.7495 23.6589 26.1319Z" fill="#959595"/>
<path d="M25.5173 20.6274C24.9884 20.4616 24.4999 20.1875 24.0828 19.8225C22.9259 21.8202 21.7925 24.7235 22.5711 25.2385C22.6492 25.2774 22.7344 25.3001 22.8215 25.305C22.9086 25.31 22.9958 25.2972 23.0778 25.2675C23.1311 25.2409 23.1885 25.2237 23.2476 25.2164C24.4156 24.7843 26.5126 22.8211 28.1859 20.7516C28.1859 20.7516 28.1956 20.7516 28.1969 20.7406L28.335 20.4976C27.4435 20.8853 26.4406 20.9315 25.5173 20.6274Z" fill="#959595"/>
<path d="M24.9054 35.2613C26.471 34.2369 28.9905 31.1955 30.9178 28.698C32.1437 25.3474 31.4313 27.2402 32.1437 25.3474C30.6734 26.5568 29.0153 27.6557 27.8336 27.6557C27.7922 27.6557 27.7535 27.6557 27.7135 27.6488C27.0011 28.5131 24.9095 30.8904 23.1949 31.3004C22.2766 33.1408 21.1239 34.8545 19.7655 36.3989C21.0191 36.4734 23.1838 36.3947 24.9054 35.2613Z" fill="#959595"/>
<path d="M31.0961 21.999C30.3709 21.9507 29.6774 21.6841 29.1067 21.2341C27.9649 23.2291 26.866 26.0661 27.6364 26.5811C28.3501 27.0532 31.0878 25.0763 33.5148 22.7293C33.6636 22.2559 33.7821 21.7736 33.8696 21.2852C33.1289 21.7518 32.2724 22.0018 31.397 22.0072C31.2962 22.0072 31.1955 22.0073 31.0961 21.999Z" fill="#959595"/>
<path d="M20.1927 17.669C21.1747 17.9342 22.2145 17.8923 23.1719 17.5488L23.6662 17.3431L23.854 17.8415C23.854 17.8526 24.4062 19.2 25.8185 19.6363C27.257 20.0836 28.2014 19.3947 28.211 19.3878L28.7011 19.0219L28.9772 19.5659C29.0035 19.6169 29.6786 20.8663 31.1613 20.9644C32.4549 21.0541 33.4517 20.3928 33.9997 19.9082C34.0632 16.8461 32.292 14.4177 27.489 13.7578C24.5907 13.3602 21.4545 14.1618 18.0804 16.1628H18.0942C18.4559 16.6252 19.1669 17.3735 20.1927 17.669Z" fill="#959595"/>
<path d="M33.0412 27.6154C32.7982 29.308 32.7968 31.1814 33.4857 31.4727C34.3058 31.8179 35.8617 29.9541 36.8225 28.3747C35.95 27.8556 35.3881 26.482 35.0499 25.2905C33.8322 26.5234 34.2644 25.9698 33.0412 27.6154Z" fill="#959595"/>
<path d="M33.7704 62.4298C33.6945 63.8338 33.7704 65.6728 34.6802 66.8283C35.3843 67.7271 36.4542 68.0197 37.5366 68.0473C37.4093 67.0025 37.3448 65.9509 37.3433 64.8983V42.4061C35.9541 41.4096 34.7058 40.23 33.6324 38.8994C32.3125 40.6481 30.9936 42.3996 29.6756 44.1539L29.6342 44.2105L27.689 46.8045C27.2327 47.4019 26.9981 48.1394 27.0256 48.8907C27.0531 49.6419 27.3408 50.3603 27.8395 50.9228C29.5127 52.8408 31.1851 54.758 32.8565 56.6742C33.3118 57.1842 33.648 57.789 33.841 58.4449C34.0339 59.1008 34.0786 59.7914 33.972 60.4666C33.8781 61.1183 33.8008 61.7685 33.7704 62.4298Z" fill="#959595"/>
<path d="M35.8716 24.3552L35.8798 24.3441C36.254 25.9152 36.9153 27.547 37.571 27.5581H37.5793C38.3303 27.5581 39.0206 25.5369 39.3119 23.8402C38.5374 23.7836 37.7353 23.2756 36.994 22.5977C36.9947 22.5913 36.9947 22.5848 36.994 22.5784C36.672 23.202 36.2964 23.7965 35.8716 24.3552Z" fill="#959595"/>
<path d="M37.8235 28.719C37.205 29.771 35.4103 32.5473 33.6818 32.5473C33.4755 32.5474 33.2713 32.5061 33.0812 32.4258C32.0914 32.0117 31.8387 30.6628 31.8525 29.3044C31.4991 31.9909 32.1687 34.9467 33.4844 36.9555C34.5409 38.5366 35.8425 39.9393 37.3403 41.111V31.7894H39.1613C38.5979 30.8212 38.149 29.7908 37.8235 28.719Z" fill="#959595"/>
<path d="M40.0139 16.2379C40.0097 16.2025 40.0097 16.1669 40.0139 16.1316C40.0139 16.1122 40.0139 16.0915 40.0139 16.0708C39.9655 16.0708 39.9131 16.0708 39.8634 16.0708C39.4754 16.0697 39.0886 16.028 38.7092 15.9466C38.7089 15.937 38.7066 15.9276 38.7023 15.9189C38.6494 17.878 38.2279 19.8095 37.4598 21.6124C37.4666 21.6087 37.4719 21.6029 37.475 21.5958C38.3268 22.449 39.1579 22.9861 39.7322 22.7679C41.0838 22.2558 40.5164 18.1637 40.029 16.2627C40.0229 16.2551 40.0178 16.2468 40.0139 16.2379Z" fill="#959595"/>
<path d="M35.0821 101.775C36.8865 90.7306 37.5091 85.7606 37.5091 85.7606C37.5588 85.5287 37.5906 85.3202 37.6279 85.1421C37.8805 83.9286 39.2776 84.2654 39.3066 85.4072C39.3077 85.7111 39.279 86.0145 39.221 86.3128C37.5644 97.9952 36.961 104.211 36.961 104.211C35.8939 109.07 42.4681 110.779 42.8326 104.072C42.9085 102.684 42.9361 101.346 42.9596 99.9542C43.0977 91.6404 43.1584 86.5517 43.1584 86.5517L43.1418 81.1937C40.391 77.8178 38.5388 73.8009 37.7576 69.5168C36.1437 69.5168 34.5823 69.0792 33.5303 67.7359C31.9869 65.7645 32.1857 62.6195 32.528 60.2656C32.6043 59.7984 32.5745 59.32 32.4406 58.8659C32.3068 58.4118 32.0724 57.9937 31.7549 57.6426L26.7393 51.8828C26.0201 51.0684 25.6051 50.03 25.5651 48.9442C25.5251 47.8584 25.8624 46.7922 26.5198 45.9271L32.7227 37.6671C32.6896 37.6188 32.6551 37.5719 32.6233 37.5208C31.4194 35.6846 30.7209 33.1182 30.7512 30.5945C28.9565 32.8393 26.8857 35.2001 25.4733 36.1292C23.8167 37.2198 21.8507 37.4614 20.4398 37.4614C20.0436 37.4614 19.6998 37.4421 19.4126 37.4172H19.4057C19.4854 37.6232 19.5088 37.8467 19.4734 38.0647C17.6883 48.6413 20.7932 58.5068 23.6979 68.5104C25.0536 67.9416 26.3459 66.5486 26.8981 64.805C27.1311 64.0757 27.2206 63.3083 27.1618 62.545C26.6303 58.8851 31.3725 61.2003 28.8267 67.2707C25.4223 75.4409 21.7361 83.6594 18.7155 91.969C17.1872 96.177 21.2129 97.3091 22.6183 94.1075C25.0826 88.4941 27.2004 82.7634 29.4259 77.0492C29.6095 76.3134 30.8134 76.5494 30.5745 77.4178C28.3656 83.7091 26.2644 90.3496 23.9478 96.5746C22.4154 100.68 27.2432 102.985 28.3656 97.882C29.5695 92.3984 31.4995 86.4233 32.9919 80.901C33.3067 79.7413 34.8156 79.8518 34.3532 81.7887C31.1489 95.2368 29.9174 100.937 29.9174 100.937C28.2662 106.414 34.8143 107.465 35.0821 101.775Z" fill="#959595"/>
<path d="M38.7144 28.0825C38.974 28.9909 39.5952 30.6655 40.4236 31.7962H43.7369C44.3886 30.7235 44.7351 29.1648 44.8607 28.2523C43.0328 27.8547 41.1856 25.0355 40.3863 23.6702C40.2565 24.5537 39.8106 27.0042 38.7144 28.0825Z" fill="#959595"/>
<path d="M45.5049 27.2212C46.6231 26.8402 46.5403 23.7809 46.1068 21.4491C45.9221 21.5133 45.7281 21.5469 45.5325 21.5485C44.1105 21.5485 42.5795 19.9498 41.4819 18.5112C41.66 19.9746 41.6918 21.7307 41.0926 22.8255C42.2868 24.9474 44.3632 27.6078 45.5049 27.2212Z" fill="#959595"/>
<path d="M44.0476 13.9216C43.3704 14.7714 42.4759 15.422 41.459 15.8047C41.3091 15.8584 41.1566 15.9045 41.002 15.9428C42.2915 18.1158 44.6109 20.9225 45.8009 20.4683C47.0738 19.9851 46.6403 16.3266 46.1792 14.3096C45.4475 14.3578 44.7153 14.2245 44.0476 13.9216Z" fill="#959595"/>
<path d="M45.7757 29.002C45.6021 29.9648 45.3061 30.9015 44.8949 31.7893H48.0274C47.0804 30.9016 46.2824 29.7861 45.7757 29.002Z" fill="#959595"/>
<path d="M43.9546 87.6345C45.0135 88.4463 46.0254 90.3211 47.1161 90.2438C48.001 90.1817 48.5077 89.0965 47.9858 88.3786C47.3425 87.4896 45.2592 87.9217 43.9546 87.6345Z" fill="#959595"/>
<path d="M45.2345 91.9817L46.4894 92.5671C48.6859 93.5929 50.384 91.9955 51.2648 91.3798L50.0099 90.7944C47.812 89.7701 46.8401 91.8409 45.2345 91.9817Z" fill="#959595"/>
<path d="M49.3624 86.4047L48.1089 85.8193C49.0339 87.1392 48.0702 89.2169 50.2681 90.2372C50.6823 90.4318 51.1061 90.6265 51.523 90.8225C51.4292 89.7553 51.5603 87.4291 49.3624 86.4047Z" fill="#959595"/>
<path d="M51.8862 18.1584C53.1494 17.6794 52.7352 14.0761 52.2796 12.0549C51.8385 12.2901 51.3552 12.4356 50.8576 12.4829C50.36 12.5303 49.858 12.4787 49.3804 12.331C48.9147 13.1196 48.1903 13.7226 47.3303 14.0374C48.6501 16.1373 50.761 18.5836 51.8862 18.1584Z" fill="#959595"/>
<path d="M52.3763 25.2714C53.6658 24.7191 53.137 21.1159 52.5738 18.9566C52.4707 19.0241 52.3611 19.081 52.2466 19.1265C52.0436 19.2052 51.8279 19.2464 51.6101 19.2479C50.1868 19.2479 48.653 17.6492 47.5568 16.2107C47.7473 17.7652 47.7708 19.6497 47.0487 20.7224C48.5287 22.9575 51.12 25.8167 52.3763 25.2714Z" fill="#959595"/>
<path d="M46.3333 27.9341C47.0001 29.0385 48.3738 30.9713 49.7185 31.7886H51.8169C52.9034 30.7477 52.8496 27.9106 52.6605 26.2595C52.4668 26.3287 52.2628 26.3651 52.0571 26.3671C50.435 26.3671 48.5712 24.415 47.3632 22.895C47.5551 24.7105 47.5247 27.0409 46.3333 27.9341Z" fill="#959595"/>
<path d="M36.846 10.1104C37.967 11.1099 38.5675 12.8715 38.6808 14.8982C38.6815 14.8936 38.6815 14.8889 38.6808 14.8844C39.2592 15.0348 40.1814 15.1605 41.1037 14.8305C42.0553 14.4679 42.874 13.8241 43.4506 12.9847L43.7267 12.5346L44.1699 12.8232C44.1823 12.8232 45.4124 13.6004 46.8151 13.1283C48.2426 12.6465 48.6098 11.5337 48.6098 11.5227L48.792 10.9387L49.336 11.2148C49.3884 11.241 50.6682 11.8568 51.9245 11.0685C53.2844 10.2153 53.6075 8.6718 53.6834 8.10024C45.7244 -0.495173 34.2478 -0.790614 34.4824 3.43116C28.6454 3.44221 27.4277 6.01835 30.8129 10.2802C31.0062 8.2383 34.6854 8.17756 36.846 10.1104ZM40.3374 3.72937C39.9719 4.15249 39.4743 4.43995 38.9251 4.54528C39.3931 5.95622 39.302 6.12051 38.2486 5.00915C37.6578 4.38882 36.8667 3.96222 35.8754 3.72937C37.3628 2.63596 38.8501 2.63596 40.3374 3.72937Z" fill="#959595"/>
<path d="M50.2296 94.3107C52.4288 95.335 54.1256 93.7391 55.0077 93.122L53.7514 92.538C51.5536 91.5122 50.5761 93.5859 48.9774 93.7253C49.3902 93.9213 49.8154 94.116 50.2296 94.3107Z" fill="#959595"/>
<path d="M54.0064 91.9842L55.2614 92.5682C55.1689 91.4983 55.2986 89.172 53.1008 88.1504L51.8472 87.5664C52.7708 88.8821 51.8086 90.9598 54.0064 91.9842Z" fill="#959595"/>
<path d="M57.9607 15.8517C58.1656 15.7619 58.3329 15.6038 58.4342 15.4044C57.4421 13.1213 56.1319 10.9902 54.5424 9.07446C54.3074 9.95024 53.8438 10.7478 53.1991 11.3855C54.4913 13.5489 56.7762 16.3031 57.9607 15.8517Z" fill="#959595"/>
<path d="M53.9653 96.0544C56.1631 97.0788 57.8612 95.4829 58.742 94.8658L57.4871 94.2804C55.2906 93.256 54.3118 95.3282 52.7117 95.4691L53.9653 96.0544Z" fill="#959595"/>
<path d="M57.7451 93.728L59 94.312C58.9061 93.2407 59.0373 90.9144 56.8394 89.8942L55.5858 89.3088C56.5094 90.6218 55.5486 92.7023 57.7451 93.728Z" fill="#959595"/>
<path d="M57.6922 16.9343C56.2702 16.9343 54.7391 15.3356 53.643 13.8901C53.8073 15.2569 53.8459 16.8777 53.3669 17.978C53.3774 17.9943 53.3866 18.0113 53.3945 18.0291C53.411 18.0843 53.44 18.1782 53.4745 18.2955C54.9586 20.5265 57.4878 23.2904 58.729 22.7548C59.9342 22.2343 59.549 19.0535 59.0341 16.8763C58.9844 16.7382 58.9333 16.6099 58.8822 16.4773C58.559 16.7742 58.1352 16.9375 57.6963 16.9343H57.6922Z" fill="#959595"/>
<path d="M58.3181 101.503L59.105 101.135L58.4686 99.7695L57.6844 100.138C57.5221 100.213 57.3392 100.23 57.1658 100.187C56.9924 100.144 56.8389 100.043 56.7304 99.9006L56.5924 99.6038C56.553 99.4297 56.5743 99.2474 56.6526 99.087C56.7309 98.9266 56.8616 98.7977 57.0231 98.7216L57.8142 98.3544L57.1764 96.989L56.3867 97.3562C55.962 97.5559 55.6086 97.8809 55.3742 98.2874C55.1397 98.6939 55.0353 99.1624 55.0751 99.63L54.1087 100.079C53.776 99.7475 53.3497 99.5263 52.8874 99.4448C52.425 99.3634 51.9488 99.4256 51.5229 99.6231L50.4778 100.109C50.0534 100.309 49.7003 100.634 49.4658 101.041C49.2314 101.447 49.1269 101.915 49.1663 102.383L48.1999 102.833C47.8673 102.502 47.4414 102.281 46.9794 102.199C46.5173 102.117 46.0414 102.179 45.6155 102.376L44.569 102.863C44.0473 103.136 43.651 103.6 43.4624 104.158C43.2738 104.715 43.3075 105.324 43.5564 105.858C43.8054 106.391 44.2505 106.808 44.7991 107.022C45.3477 107.236 45.9575 107.23 46.5018 107.005L47.5469 106.518C47.9713 106.318 48.3245 105.993 48.559 105.587C48.7934 105.181 48.8979 104.713 48.8584 104.245L49.8248 103.795C50.1571 104.126 50.5828 104.348 51.0446 104.429C51.5064 104.511 51.9822 104.449 52.4079 104.252L53.453 103.765C53.8778 103.565 54.2312 103.24 54.4657 102.834C54.7002 102.427 54.8045 101.959 54.7645 101.491L55.7309 101.042C56.0633 101.374 56.4895 101.597 56.9521 101.679C57.4147 101.762 57.8914 101.7 58.3181 101.503ZM46.916 105.158L45.8709 105.645C45.7774 105.692 45.6754 105.72 45.571 105.727C45.4666 105.734 45.3619 105.72 45.263 105.685C45.1642 105.651 45.0733 105.597 44.9956 105.527C44.918 105.456 44.8553 105.371 44.8112 105.277C44.7671 105.182 44.7425 105.079 44.7388 104.974C44.7352 104.87 44.7526 104.765 44.79 104.668C44.8274 104.57 44.8841 104.481 44.9566 104.405C45.0292 104.33 45.1161 104.27 45.2124 104.229L46.2561 103.741C46.4434 103.657 46.6562 103.65 46.8486 103.722C47.041 103.794 47.1975 103.938 47.2842 104.124C47.3709 104.31 47.3808 104.523 47.3119 104.717C47.243 104.91 47.1008 105.068 46.916 105.158ZM52.822 102.404L51.7756 102.891C51.6135 102.966 51.4305 102.984 51.257 102.941C51.0835 102.898 50.9299 102.797 50.8216 102.655L50.6835 102.357C50.6448 102.183 50.6664 102.001 50.7446 101.841C50.8229 101.681 50.9532 101.552 51.1143 101.476L52.1594 100.987C52.2524 100.944 52.353 100.919 52.4556 100.914C52.5582 100.91 52.6607 100.925 52.7572 100.96C52.8537 100.995 52.9424 101.049 53.0182 101.118C53.094 101.188 53.1554 101.271 53.1989 101.364C53.2425 101.457 53.2672 101.558 53.2718 101.66C53.2764 101.763 53.2608 101.865 53.2258 101.962C53.1908 102.058 53.1371 102.147 53.0679 102.223C52.9986 102.299 52.915 102.36 52.822 102.404Z" fill="#959595"/>
<path d="M45.8116 112.021C47.0376 112.021 51.3187 111.427 51.3574 112.927C50.917 116.904 36.7717 110.834 33.6861 108.198L34.9838 112.285L30.6847 111.719C34.1251 114.651 51.3615 122.007 51.3615 117.456V113.714C54.1214 114.123 56.9004 114.391 59.6877 114.516V109.992C55.0245 109.797 50.3843 109.229 45.8116 108.294C43.368 108.294 43.368 112.021 45.8116 112.021Z" fill="#959595"/>
<path d="M53.2196 31.5945C53.25 31.6538 53.2914 31.7215 53.3314 31.7891H59.8394C59.8313 31.1473 59.7852 30.5065 59.7014 29.8701C59.3828 29.9964 59.0431 30.0611 58.7005 30.0607C56.9057 30.0607 54.995 28.4661 53.7898 27.2429C53.8629 28.5572 53.8077 30.3064 53.2086 31.5765C53.2119 31.5827 53.2156 31.5887 53.2196 31.5945Z" fill="#959595"/>
<path d="M58.4051 23.8514C56.9128 23.8514 55.216 22.1947 54.0149 20.7534C54.2828 22.4101 54.3767 24.405 53.6118 25.5233C54.8088 26.9425 57.6638 29.7188 59.4295 28.8643C61.1594 28.0263 60.6375 24.4865 60.1585 22.6517C59.9597 23.1174 59.5938 23.4917 59.1327 23.7009C58.903 23.8003 58.6554 23.8515 58.4051 23.8514Z" fill="#959595"/>
<path d="M60.6096 29.2709C60.6441 29.3277 60.6675 29.3905 60.6786 29.4559C60.8011 30.2281 60.8717 31.0075 60.8898 31.7891H64.1341C63.8702 31.6262 63.6272 31.4314 63.4107 31.2093C62.425 30.1835 62.055 28.6856 62.3712 26.993C62.5194 26.2664 62.769 25.5642 63.1125 24.907V24.8987C62.8902 25.0524 62.6274 25.1369 62.3572 25.1416C62.0869 25.1463 61.8214 25.0709 61.5939 24.9249C61.7416 26.4808 61.6174 28.2521 60.6096 29.2709Z" fill="#959595"/>
<path d="M66.4843 31.2735C66.8468 31.2235 67.1951 31.0997 67.5079 30.9097C67.8206 30.7198 68.0911 30.4677 68.3025 30.169C67.9126 29.3646 67.7272 28.4764 67.7627 27.5832C67.7944 25.823 68.7512 24.1539 69.5864 23.0273C69.156 23.0972 68.7206 23.1323 68.2846 23.1323C67.5318 23.1172 66.8032 22.8634 66.204 22.4075C65.4875 23.153 63.788 25.1065 63.396 27.187C63.1419 28.5413 63.4139 29.7176 64.1635 30.5004C64.4597 30.8063 64.8253 31.0364 65.2293 31.171C65.6333 31.3055 66.0638 31.3407 66.4843 31.2735Z" fill="#959595"/>
<path d="M68.039 31.789H69.7813C69.5209 31.6348 69.2802 31.4493 69.0648 31.2368C69.0123 31.1829 68.9557 31.1208 68.9005 31.0601C68.6517 31.345 68.3612 31.5908 68.039 31.789Z" fill="#959595"/>
<path d="M68.2793 22.0962C69.0733 22.1102 69.8625 21.9695 70.6028 21.6821C70.3267 20.8717 70.1762 19.6347 70.8099 18.1091C71.1054 17.4314 71.517 16.8105 72.0262 16.2744C71.6658 16.2445 71.3107 16.1679 70.97 16.0466C70.2397 15.7898 69.5053 15.0015 69.0676 14.042C68.1979 14.8137 66.2181 16.7672 65.9227 18.8146C65.775 19.8473 65.9613 20.6715 66.4749 21.2637C66.7025 21.5188 66.9802 21.7243 67.2906 21.8675C67.601 22.0107 67.9376 22.0886 68.2793 22.0962Z" fill="#959595"/>
<path d="M65.1547 109.148H64.8703L65.1547 109.141V107.051H69.3944L72.2756 107.917V103.97L69.3944 104.834H66.3378V90.6292C65.4911 90.7313 64.6342 90.7916 63.7672 90.81V104.834H62.7539V90.81C61.885 90.7916 61.0277 90.7313 60.1819 90.6292V104.834H57.1322L54.2523 103.97V107.921L57.1322 107.051H61.3719V117.378L59.9679 120.26H66.5656L65.1616 117.378L65.1547 109.148Z" fill="#959595"/>
<path d="M68.7954 27.6003C68.7705 29.1521 69.3255 30.0357 69.7977 30.4995C70.0387 30.7453 70.327 30.9397 70.6452 31.0711C70.9633 31.2026 71.3048 31.2683 71.649 31.2644C73.2187 31.2243 73.8745 29.8658 73.8814 29.852C73.8883 29.8382 73.8993 29.8313 73.9076 29.8175C73.5836 29.1171 73.4267 28.351 73.4493 27.5796C73.47 26.3882 74.0098 25.1139 74.6683 23.9901C74.3992 24.0439 74.1255 24.0716 73.851 24.073C73.4907 24.0728 73.1316 24.0306 72.7811 23.9473C72.1681 23.8093 71.5827 23.3647 71.1451 22.7449C70.3996 23.5856 68.8299 25.5778 68.7954 27.6003Z" fill="#959595"/>
<path d="M74.5275 30.7759C74.2324 31.182 73.8604 31.5263 73.4327 31.7892H75.7797C75.3054 31.5285 74.8814 31.1854 74.5275 30.7759Z" fill="#959595"/>
<path d="M76.3402 90.461L75.8929 89.6548L67.8759 94.1099L68.823 94.6373L76.3402 90.461Z" fill="#959595"/>
<path d="M71.3176 15.0699C72.5987 15.5213 73.4423 14.9926 73.4768 14.9691C73.4888 14.963 73.5012 14.9579 73.5141 14.9539C74.2235 14.4277 74.9785 13.9657 75.7699 13.5734C75.7788 12.6229 76.0352 11.6913 76.514 10.8702C76.6114 10.6976 76.7178 10.5303 76.8329 10.3691C76.6388 10.351 76.4474 10.3102 76.2628 10.2476C75.7105 10.0515 75.2108 9.50345 74.9388 8.78279C74.77 8.323 74.699 7.83304 74.7303 7.34424C73.5292 7.72251 71.1091 8.67096 70.1593 10.3815C69.8942 10.8349 69.7352 11.3424 69.6941 11.866C69.6529 12.3896 69.7308 12.9157 69.9218 13.4049C70.2573 14.2913 70.8786 14.9153 71.3176 15.0699Z" fill="#959595"/>
<path d="M77.7885 93.0646L77.3412 92.2598L70.945 95.812L71.8935 96.338L77.7885 93.0646Z" fill="#959595"/>
<path d="M76.0463 14.9988C76.0026 14.8863 75.9648 14.7715 75.9331 14.655C74.8936 15.2073 72.5549 16.6127 71.7707 18.5054C71.1136 20.0876 71.4946 21.2514 71.7707 21.805C72.0772 22.4014 72.5535 22.8377 73.0132 22.9453C74.6147 23.3209 75.6432 22.5132 75.6529 22.5049H75.6625C76.0997 21.9127 76.5713 21.3466 77.0749 20.8096C77.0749 20.7654 77.0749 20.724 77.0831 20.6798C77.2405 19.2993 78.2953 17.8179 79.1692 16.8046C79.0201 16.8184 78.8724 16.828 78.726 16.828C78.4187 16.8313 78.1124 16.7914 77.8162 16.7093C77.0403 16.4746 76.3942 15.8534 76.0463 14.9988Z" fill="#959595"/>
<path d="M76.6066 9.27054C77.4584 9.57012 78.2205 8.953 78.2274 8.94748H78.2398C79.218 8.20177 80.2944 7.59458 81.4386 7.14308C80.4847 6.15296 79.6078 5.09144 78.8155 3.96777C78.186 4.2218 76.8427 4.88585 76.151 6.1256C75.5726 7.16103 75.7507 8.01146 75.9053 8.42563C76.0889 8.90054 76.3899 9.1946 76.6066 9.27054Z" fill="#959595"/>
<path d="M80.4641 29.7987C80.2544 29.2135 80.1474 28.5965 80.1479 27.9749C80.1479 26.8622 80.5524 25.7025 81.0784 24.6698C80.8623 24.719 80.6415 24.7449 80.4199 24.7472C80.2001 24.7466 79.9809 24.7244 79.7655 24.6809C79.1597 24.5357 78.6034 24.2322 78.1534 23.8013C77.7034 23.3705 77.376 22.8279 77.2046 22.229C76.2271 23.3928 74.5194 25.6956 74.4876 27.6008C74.4434 30.3136 76.5861 31.1709 77.4158 31.2717C78.013 31.3603 78.6231 31.2672 79.1667 31.0045C79.7103 30.7418 80.1624 30.3216 80.4641 29.7987Z" fill="#959595"/>
<path d="M76.0678 88.9079C76.4654 89.1467 77.0342 89.3966 77.6775 89.0459L78.1607 88.7767C77.7728 88.7698 77.4566 88.4785 77.0825 88.3501L77.5105 88.1113C77.9095 88.3501 78.4769 88.6 79.1202 88.2494L79.6048 87.9732C79.2169 87.9732 78.8993 87.6737 78.5238 87.5453L78.9518 87.3078C79.3508 87.5466 79.9182 87.7965 80.5629 87.4459L81.0475 87.1767C80.6582 87.1697 80.3434 86.8785 79.9679 86.7501L80.4387 86.4877L80.4884 86.4588C80.8211 86.2544 81.1096 85.6912 81.4327 85.4054C80.9798 85.5434 80.2689 85.4661 79.9486 85.7064L79.5164 85.9466C79.6062 85.5586 79.5233 85.1334 79.7249 84.7993L79.2417 85.0671C78.5956 85.4247 78.5114 86.0446 78.5017 86.5098L78.0724 86.7473C78.1649 86.3594 78.0806 85.9341 78.2836 85.6L77.7976 85.8762C77.1543 86.2337 77.0673 86.8522 77.0604 87.3175L76.6297 87.5563C76.7222 87.1684 76.638 86.7432 76.8395 86.4077L76.3549 86.6769C75.713 87.0345 75.626 87.6543 75.6177 88.1196L66.3362 93.2732L67.286 93.7992L76.0678 88.9079Z" fill="#959595"/>
<path d="M80.9871 30.843C80.6764 31.2182 80.3027 31.5364 79.8827 31.7832H81.8334C81.5097 31.51 81.2249 31.1936 80.9871 30.843Z" fill="#959595"/>
<path d="M80.965 88.5427C81.0547 88.1547 80.965 87.7295 81.1734 87.394L80.6902 87.6702C80.0455 88.0277 79.9585 88.6476 79.9502 89.1129L79.5209 89.3503C79.6134 88.9624 79.5292 88.5372 79.7294 88.2031L79.2462 88.4792C78.6028 88.8367 78.5172 89.4552 78.5089 89.9205L78.0782 90.1579C78.1707 89.7714 78.0865 89.3448 78.288 89.0107L77.8035 89.2799C77.1587 89.6375 77.0731 90.256 77.0662 90.7226L69.4096 94.9747L70.3581 95.5007L77.5163 91.5247C77.9139 91.7649 78.4827 92.0148 79.1247 91.6628L79.6092 91.3936C79.2199 91.3867 78.9038 91.0953 78.5296 90.967L78.9576 90.7281C79.3566 90.967 79.924 91.2168 80.5674 90.8662L81.0506 90.5901C80.6626 90.5901 80.3478 90.2919 79.971 90.1635L80.3989 89.926C80.7979 90.1648 81.3653 90.4147 82.0101 90.0641L82.4933 89.7949C82.1067 89.788 81.7905 89.4966 81.4164 89.3669L81.8844 89.106C81.9025 89.0974 81.92 89.0877 81.9369 89.077C82.2682 88.8726 82.5581 88.3107 82.8812 88.0236C82.4284 88.1616 81.716 88.0843 81.3971 88.3232L80.965 88.5427Z" fill="#959595"/>
<path d="M79.9684 23.6655C81.1225 23.9016 81.9343 23.1505 82.071 23.0139C82.466 22.4386 82.8976 21.8894 83.3632 21.3696C82.2603 19.8506 81.6485 18.0306 81.6099 16.1538C81.429 16.227 81.2219 16.3043 80.9983 16.3816C80.5841 16.7792 78.3269 18.9881 78.1198 20.7911C77.8837 22.7943 79.3747 23.5468 79.9684 23.6655Z" fill="#959595"/>
<path d="M76.0458 100.109L75.0021 99.6231C74.5763 99.4256 74.1 99.3634 73.6377 99.4448C73.1753 99.5263 72.7491 99.7475 72.4163 100.079L71.4499 99.63C71.4897 99.1624 71.3854 98.6939 71.1509 98.2874C70.9164 97.8809 70.5631 97.5559 70.1384 97.3562L69.3487 96.989L68.7137 98.3544L69.502 98.7216C69.6632 98.7981 69.7937 98.9269 69.8722 99.0872C69.9507 99.2474 69.9725 99.4296 69.9341 99.6038L69.796 99.9006C69.6881 100.043 69.5348 100.144 69.3616 100.187C69.1883 100.23 69.0055 100.213 68.8434 100.138L68.0565 99.7695L67.4173 101.135L68.207 101.503C68.6328 101.701 69.1089 101.762 69.5709 101.681C70.033 101.599 70.4589 101.378 70.7914 101.047L71.7578 101.495C71.7174 101.963 71.8215 102.432 72.056 102.838C72.2906 103.245 72.6443 103.57 73.0693 103.769L74.1144 104.256C74.5401 104.453 75.0159 104.515 75.4777 104.433C75.9395 104.352 76.3652 104.13 76.6975 103.799L77.6639 104.249C77.6246 104.717 77.7291 105.185 77.9636 105.591C78.198 105.997 78.5511 106.322 78.9754 106.522L80.0205 107.009C80.2944 107.152 80.5946 107.239 80.9028 107.263C81.211 107.287 81.5209 107.248 81.8137 107.149C82.1066 107.05 82.3763 106.893 82.6067 106.687C82.837 106.48 83.0232 106.23 83.1539 105.95C83.2846 105.669 83.3572 105.366 83.3673 105.057C83.3774 104.748 83.3247 104.44 83.2125 104.152C83.1003 103.864 82.9309 103.601 82.7144 103.381C82.498 103.16 82.2391 102.985 81.9533 102.867L80.9096 102.38C80.4837 102.183 80.0077 102.122 79.5457 102.203C79.0837 102.285 78.6577 102.506 78.3252 102.837L77.3588 102.387C77.3991 101.919 77.2949 101.449 77.0601 101.042C76.8254 100.635 76.4714 100.309 76.0458 100.109ZM75.836 102.357L75.6979 102.655C75.59 102.797 75.4367 102.898 75.2633 102.941C75.09 102.984 74.9072 102.966 74.7454 102.891L73.6989 102.404C73.511 102.316 73.3657 102.157 73.2949 101.962C73.2241 101.768 73.2336 101.553 73.3213 101.365C73.409 101.177 73.5677 101.032 73.7625 100.961C73.9574 100.89 74.1723 100.899 74.3602 100.987L75.4053 101.476C75.5665 101.552 75.697 101.681 75.7753 101.841C75.8536 102.001 75.875 102.183 75.836 102.357ZM79.2212 104.12C79.309 103.932 79.4675 103.787 79.6621 103.716C79.8567 103.645 80.0715 103.654 80.2593 103.741L81.3044 104.229C81.3989 104.271 81.484 104.332 81.5548 104.407C81.6257 104.483 81.6807 104.572 81.7169 104.669C81.753 104.766 81.7695 104.869 81.7654 104.973C81.7613 105.076 81.7367 105.178 81.6929 105.272C81.6492 105.366 81.5873 105.45 81.5107 105.519C81.4341 105.589 81.3444 105.643 81.2469 105.678C81.1493 105.713 81.0458 105.728 80.9424 105.722C80.839 105.716 80.7378 105.69 80.6445 105.645L79.598 105.158C79.4107 105.07 79.2659 104.911 79.1953 104.717C79.1247 104.522 79.134 104.307 79.2212 104.12Z" fill="#959595"/>
<path d="M77.4153 11.3779C76.7788 12.5168 76.6284 13.6945 77.0011 14.6098C77.233 15.1717 77.6348 15.5762 78.1056 15.7142C78.782 15.9117 79.7346 15.7142 80.5437 15.4464C80.9239 15.32 81.2967 15.1725 81.6605 15.0046C81.7922 13.9709 82.1279 12.9736 82.6481 12.0707C83.1683 11.1677 83.8627 10.3771 84.6909 9.74465C83.8161 9.23191 83.0003 8.62449 82.2583 7.93335C81.3651 8.25916 78.5046 9.42298 77.4153 11.3779Z" fill="#959595"/>
<path d="M83.3847 91.6606C83.7146 91.4563 84.0059 90.8944 84.3276 90.6072C83.8762 90.7453 83.1638 90.668 82.8449 90.9068L82.4114 91.1484C82.5011 90.7591 82.4114 90.3352 82.6212 89.9998L82.1367 90.2759C81.4919 90.6334 81.405 91.2519 81.3967 91.7186L80.9687 91.956C81.0584 91.5681 80.977 91.1429 81.1772 90.8088C81.0156 90.8971 80.8555 90.9882 80.6926 91.0766C80.0492 91.4342 79.9623 92.054 79.954 92.5193L79.5246 92.7568C79.6171 92.3702 79.5329 91.9436 79.7345 91.6095L79.2513 91.8787C78.6065 92.2363 78.5196 92.8548 78.5127 93.32L72.4796 96.6707L73.4294 97.1967L78.9627 94.1249C79.3603 94.3624 79.9291 94.6136 80.5711 94.256C80.7326 94.1663 80.8955 94.078 81.0543 93.9882C80.6664 93.9813 80.3502 93.69 79.9761 93.5602L80.404 93.3228C80.8044 93.5616 81.3704 93.8115 82.0138 93.4608L82.497 93.1847C82.109 93.1847 81.7957 92.8865 81.4188 92.7581L81.8467 92.5193C82.2457 92.7595 82.8131 93.0094 83.4565 92.6573L83.9397 92.3881C83.5531 92.3812 83.237 92.0899 82.8628 91.9602L83.3322 91.6992L83.3847 91.6606Z" fill="#959595"/>
<path d="M84.9519 23.1208C84.6179 22.8317 84.3038 22.5204 84.0117 22.189C83.4595 22.8282 81.1663 25.6224 81.1774 27.9708C81.187 29.6578 82.0057 30.5939 82.4931 30.997C83.1198 31.5202 83.7245 31.6362 84.0434 31.581C84.4356 31.5169 84.8085 31.3665 85.1354 31.1407C85.4623 30.9148 85.7349 30.6191 85.9334 30.275C85.7056 27.9901 86.5989 25.3988 86.9923 24.3951C86.2562 24.0674 85.5694 23.6385 84.9519 23.1208Z" fill="#959595"/>
<path d="M63.2712 56.5055C63.6384 56.4006 64.9582 56.003 65.204 55.8318C65.3655 55.7228 65.3172 55.6068 64.8809 55.5074C63.6605 55.2644 62.9481 54.9386 62.7231 53.8687C62.2937 54.5935 60.9684 56.1135 59.8239 56.9432C60.5501 56.8051 62.7355 55.6827 63.1456 55.4121C62.8225 56.4476 62.7369 56.6602 63.2712 56.5055Z" fill="#959595"/>
<path d="M57.4082 56.3528L55.093 57.9791C57.7621 57.495 60.1679 55.8443 62.3106 53.027C62.762 52.8324 63.2597 52.7706 63.745 52.8489C67.2627 53.281 67.4822 56.2078 73.6036 56.3404V47.3584H52.9131V56.3528L55.162 54.5581L57.4082 56.3528ZM67.837 50.7463C67.8357 51.2317 67.6792 51.7039 67.3903 52.0939C67.1014 52.4839 66.6953 52.7712 66.2314 52.9138C65.4989 52.4777 64.6836 52.1989 63.8375 52.0951C63.2096 51.9998 62.5675 52.085 61.9861 52.3409C61.6203 52.5134 61.4988 53.0118 60.9397 53.0118C60.3393 53.01 59.7639 52.7708 59.3392 52.3463C58.9145 51.9219 58.675 51.3467 58.6728 50.7463H67.837Z" fill="#959595"/>
<path d="M73.6078 60.7602V58.8867H52.9131V60.7602C52.9131 66.4205 57.6001 71.1061 63.259 71.1061C68.918 71.1061 73.6078 66.4191 73.6078 60.7602ZM67.3483 66.0671C66.3902 66.0671 65.6129 65.3947 65.6129 64.5636H69.0864C69.0919 65.3947 68.3147 66.0671 67.3483 66.0671ZM71.1324 61.7555C71.1324 62.5839 70.3552 63.259 69.397 63.259C68.4389 63.259 67.6589 62.5853 67.6589 61.7555H71.1324ZM67.0376 61.7555C67.0376 62.5839 66.2604 63.259 65.3023 63.259C64.3442 63.259 63.5641 62.5853 63.5641 61.7555H67.0376ZM55.376 61.7555H58.8495C58.8495 62.5839 58.0722 63.259 57.1141 63.259C56.156 63.259 55.3815 62.5853 55.3815 61.7555H55.376ZM59.1601 66.0671C58.1937 66.0671 57.4248 65.3947 57.4248 64.5636H60.8969C60.9024 65.3947 60.1251 66.0671 59.1656 66.0671H59.1601ZM59.479 61.7555H62.9525C62.9525 62.5839 62.1753 63.259 61.2158 63.259C60.2563 63.259 59.479 62.5853 59.479 61.7555ZM61.5264 64.5636H65.0013C65.0013 65.392 64.224 66.0671 63.2632 66.0671C62.3023 66.0671 61.5223 65.3947 61.5223 64.5636H61.5264Z" fill="#959595"/>
<path d="M47.9898 71.9533C47.9139 72.2294 48.7988 72.7043 49.0335 72.7664C49.6934 72.9445 49.9613 71.9478 49.2986 71.7697C49.0653 71.7089 48.0616 71.6772 47.9898 71.9533Z" fill="#959595"/>
<path d="M51.3724 73.5183C51.5267 73.429 51.6511 73.296 51.7299 73.136C51.8086 72.976 51.8381 72.7962 51.8147 72.6195C51.7913 72.4427 51.7159 72.2768 51.5982 72.1429C51.4805 72.0089 51.3257 71.9129 51.1534 71.8669C50.9811 71.8209 50.7991 71.8271 50.6303 71.8846C50.4615 71.9421 50.3135 72.0484 50.2051 72.19C50.0967 72.3316 50.0328 72.5022 50.0214 72.6801C50.0099 72.8581 50.0515 73.0354 50.1409 73.1897C50.2001 73.2923 50.2789 73.3822 50.3729 73.4542C50.4668 73.5262 50.5741 73.579 50.6885 73.6095C50.8029 73.6401 50.9221 73.6477 51.0395 73.6321C51.1569 73.6164 51.27 73.5778 51.3724 73.5183Z" fill="#959595"/>
<path d="M50.46 70.9058C50.3385 70.6959 49.6496 69.9656 49.4053 70.1078C49.1609 70.25 49.4453 71.2123 49.5654 71.4221C49.9078 72.0158 50.8038 71.4994 50.46 70.9058Z" fill="#959595"/>
<path d="M51.8862 71.1159C51.9497 70.8826 51.9787 69.8734 51.7026 69.8044C51.4265 69.7354 50.9516 70.6162 50.8895 70.8481C50.7169 71.5108 51.7137 71.7786 51.8862 71.1159Z" fill="#959595"/>
<path d="M87.8706 64.8626V33.0957H38.6492V64.8626C38.6492 78.4004 49.7214 89.4726 63.2592 89.4726C76.7971 89.4726 87.8706 78.4004 87.8706 64.8626ZM70.2477 84.0718C70.2136 83.3033 70.7332 82.9416 71.8063 82.9867C72.273 81.0787 72.5334 79.7939 72.5877 79.1321C72.0717 79.1627 71.56 79.022 71.1321 78.7319C70.7043 78.4418 70.3841 78.0186 70.2214 77.5279C70.6651 74.7254 71.2633 73.0263 72.0162 72.4308C72.6982 72.4502 73.3802 72.4502 74.0622 72.4308C75.7313 75.0802 75.4427 77.3084 75.4165 80.2752C74.8063 80.9867 73.7819 82.2002 72.3434 83.9158L70.2477 84.0718ZM70.6618 78.8878C71.0972 79.181 71.573 79.4094 72.0742 79.5656C71.8257 81.2094 71.701 82.0313 71.7 82.0313C71.099 81.0856 70.7422 80.0054 70.6618 78.8878ZM71.9541 71.1566L72.6319 71.637L73.024 70.7659L73.4133 71.637L74.0939 71.1566L74.0732 72.123H71.9734L71.9541 71.1566ZM75.8196 67.164H76.8192L76.6383 68.14L77.6158 67.9606V68.9601L76.6383 68.7806L76.8192 69.7567H75.8196L75.9964 68.7806L75.03 68.9601V67.9606L75.9964 68.14L75.8196 67.164ZM76.3222 71.3264C76.2009 71.3264 76.0823 71.2904 75.9815 71.223C75.8806 71.1556 75.8021 71.0598 75.7557 70.9477C75.7094 70.8356 75.6973 70.7123 75.7211 70.5933C75.7448 70.4744 75.8034 70.3652 75.8892 70.2795C75.9751 70.1938 76.0844 70.1356 76.2034 70.1121C76.3224 70.0886 76.4457 70.1009 76.5577 70.1475C76.6697 70.1941 76.7653 70.2729 76.8325 70.3739C76.8997 70.4749 76.9354 70.5935 76.9351 70.7148C76.9351 70.7952 76.9193 70.8749 76.8885 70.9492C76.8576 71.0235 76.8125 71.0909 76.7555 71.1478C76.6986 71.2046 76.631 71.2496 76.5566 71.2802C76.4823 71.3109 76.4026 71.3266 76.3222 71.3264ZM76.6673 71.666V80.2145H75.977V71.666H76.6673ZM74.4902 83.8868C74.2969 83.4423 74.4625 83.1091 74.9872 82.8873C74.1381 81.417 76.3429 80.0543 77.6406 81.6144C76.6575 82.4613 75.6029 83.2216 74.4888 83.8868H74.4902ZM80.341 78.8436C80.2508 78.7645 80.1805 78.6653 80.1357 78.554C80.0908 78.4428 80.0727 78.3225 80.0828 78.203C80.1325 77.6314 80.6558 77.6342 80.8325 77.0985C81.0092 76.5629 80.5867 76.059 79.9876 76.5035L79.1496 77.122C79.16 76.7322 79.2804 76.3532 79.4967 76.0287C79.7131 75.7043 80.0167 75.4475 80.3725 75.2879C80.7284 75.1284 81.1221 75.0726 81.5083 75.1269C81.8944 75.1813 82.2574 75.3436 82.5554 75.5951C81.9129 76.7404 81.1714 77.8274 80.3396 78.8436H80.341ZM84.4468 67.8322C84.2245 69.3618 82.7142 69.3867 81.5159 69.638C81.085 69.7137 80.6685 69.8562 80.2816 70.0604C79.6894 70.3945 79.1772 71.3292 79.8675 71.7074C80.6406 72.1313 81.0506 71.0558 81.8334 70.759C82.7639 70.4056 83.4625 71.1814 84.0161 72.3963C83.7621 73.0728 83.5545 73.5827 83.3934 73.926C83.2844 73.6375 83.1077 73.0811 82.8951 72.6131C82.1026 70.8763 81.8831 72.4557 81.3654 73.204C80.7938 74.0323 79.9254 74.8818 78.7603 75.7525C78.3452 76.9913 77.8555 77.9228 77.2913 78.5468C77.272 76.8763 77.272 75.2063 77.2913 73.5367C77.9485 72.9845 78.2895 72.0968 78.5187 71.2933C78.7064 70.603 78.734 70.3683 79.347 69.8133C79.8992 69.3246 80.5757 69.0719 81.3585 68.9076C81.9107 68.7931 83.0152 68.6909 83.4293 68.3057C83.5869 68.1516 83.6847 67.9467 83.7054 67.7273C83.8518 66.6987 82.2821 66.3992 81.5462 66.2735C80.994 66.1783 80.3355 66.0126 79.9779 65.5404C79.3235 64.6734 80.1049 63.3923 80.6116 62.6578C80.9443 62.1732 81.5573 62.5971 81.2232 63.0803C80.9636 63.4599 80.203 64.5989 80.5716 65.0918C80.7842 65.3679 81.3461 65.4838 81.676 65.5391C81.9746 65.5887 82.2704 65.6537 82.5623 65.7337C83.5702 66.0181 84.6208 66.6131 84.4454 67.8322H84.4468ZM79.4975 38.6994C81.4938 38.6111 81.2149 37.2181 80.2678 37.1214C81.52 36.398 82.2945 37.6074 82.144 38.7712C83.3078 38.6194 84.5172 39.3952 83.8007 40.6474C83.7027 39.7003 82.3111 39.4201 82.2213 41.4164C87.1914 41.4827 84.4579 49.1476 85.3041 53.2064C84.4082 52.8047 83.8048 52.2152 83.8532 50.8181L84.0354 45.478C84.0658 44.4315 83.4473 44.357 83.3713 44.8153C83.2747 46.363 83.2333 49.1862 83.127 51.235C82.2296 50.8332 81.9259 50.339 81.9728 48.9419L82.1206 44.1872C82.1509 43.1393 81.5324 43.0648 81.4579 43.5245C81.3599 45.0721 81.3488 47.4219 81.2536 49.3105C80.3576 48.9087 80.0483 48.4642 80.0994 47.0671L80.1836 43.6018C80.214 42.5554 79.6838 42.3331 79.3042 42.7127C79.1643 42.8839 79.0469 43.0722 78.9549 43.2733C77.5743 46.1089 74.7966 43.3492 77.6434 41.9617C77.8441 41.8692 78.0324 41.7519 78.2039 41.6124C78.5835 41.2328 78.3613 40.7013 77.3134 40.733L73.8496 40.8186C72.4524 40.8669 72.0065 40.5577 71.6075 39.6617C73.4948 39.5664 75.8445 39.5554 77.3907 39.4574C77.8505 39.3828 77.7759 38.7671 76.7281 38.7947L71.9734 38.9424C70.5776 38.9921 70.0806 38.6856 69.6816 37.7896C71.7276 37.6861 74.5523 37.6419 76.0999 37.5453C76.5596 37.4693 76.4837 36.855 75.4372 36.8812L70.0972 37.0676C68.7001 37.1159 68.1106 36.5154 67.7102 35.6166C71.7663 36.4657 79.4326 33.7252 79.4975 38.6994ZM46.64 40.1256C46.7259 40.2112 46.7844 40.3204 46.8082 40.4394C46.832 40.5583 46.82 40.6817 46.7736 40.7938C46.7273 40.9059 46.6487 41.0017 46.5479 41.0692C46.447 41.1366 46.3285 41.1726 46.2071 41.1726C46.0858 41.1726 45.9673 41.1366 45.8664 41.0692C45.7656 41.0017 45.687 40.9059 45.6407 40.7938C45.5943 40.6817 45.5823 40.5583 45.6061 40.4394C45.6299 40.3204 45.6884 40.2112 45.7743 40.1256C45.8311 40.0687 45.8986 40.0235 45.9729 39.9927C46.0471 39.9619 46.1268 39.9461 46.2071 39.9461C46.2875 39.9461 46.3672 39.9619 46.4414 39.9927C46.5157 40.0235 46.5832 40.0687 46.64 40.1256ZM43.3459 38.404L44.0528 37.6971L44.6174 38.5131L45.1793 37.6971L45.8848 38.404L45.0689 38.9673L45.8848 39.5305L45.1793 40.2319L44.6174 39.4159L44.0528 40.2319L43.3459 39.5264L44.1618 38.9631L43.3459 38.404ZM40.7422 38.7781C41.1339 38.7239 41.5328 38.7896 41.8864 38.9666C42.2401 39.1435 42.5318 39.4234 42.7233 39.7694C42.869 40.0295 42.9406 40.3246 42.9304 40.6226C42.9166 41.7878 41.935 42.8977 41.6879 44.0643C41.5995 44.5033 41.565 45.0307 41.7376 45.4573C41.7783 45.5801 41.8472 45.6916 41.9388 45.7829C42.0304 45.8743 42.1421 45.9429 42.2649 45.9833C42.9842 46.1697 43.5075 45.0887 43.8526 44.5931C44.7293 43.3395 45.6087 42.3414 48.1144 40.6239C47.4614 37.4486 49.5184 33.7667 52.4024 36.2282C52.284 36.8247 51.9619 37.3616 51.4913 37.7468C51.7375 37.8812 51.9517 38.0674 52.119 38.2926C52.2863 38.5178 52.4028 38.7766 52.4604 39.0511C52.518 39.3257 52.5154 39.6095 52.4527 39.8829C52.3901 40.1564 52.2688 40.4129 52.0973 40.635C53.0209 41.0326 53.7664 41.2397 54.4733 41.103C55.1001 40.9815 55.1981 40.7965 55.6606 40.4624C55.9491 40.2553 56.2777 40.1476 56.5787 40.6681C55.6472 41.814 53.8157 42.3202 51.084 42.1867C50.0042 43.1496 48.7641 43.9159 47.42 44.4509C47.4504 45.3473 46.5033 46.7325 44.5788 48.6064C44.8632 50.2341 44.7099 51.5553 43.9948 52.0716C43.339 52.5438 42.4237 52.3988 43.0546 51.3592C43.4757 50.669 44.3372 50.0394 43.6069 49.2304C42.2622 47.6828 45.2925 46.8586 44.2005 45.351C43.9989 45.5691 43.7974 45.7831 43.5999 46.0054C43.2258 46.4196 42.6819 46.7109 42.1117 46.5576C41.8986 46.4953 41.7033 46.3833 41.5418 46.231C41.3803 46.0786 41.2572 45.8901 41.1826 45.681C40.9644 45.1398 40.9865 44.5061 41.1025 43.9456C41.1955 43.5417 41.3344 43.1498 41.5167 42.7776C41.7928 42.1647 42.3188 41.2949 42.3284 40.617C42.3367 40.3954 42.2743 40.1769 42.1504 39.993C41.9722 40.0829 41.7714 40.1182 41.5732 40.0943C41.3751 40.0704 41.1884 39.9884 41.0368 39.8587C40.8851 39.729 40.7751 39.5574 40.7207 39.3653C40.6664 39.1733 40.67 38.9695 40.7311 38.7795L40.7422 38.7781ZM49.8622 45.7086C49.4135 47.201 47.2654 48.0127 45.8199 48.1826C46.8995 46.9916 47.5226 45.86 47.6892 44.7877C47.9073 45.3496 47.8825 45.7721 47.7113 46.5576C48.7647 46.4127 49.3804 45.2433 49.8622 45.7086ZM52.5516 82.1059C54.061 82.1685 55.2469 81.8325 56.1093 81.0981C58.4756 82.2163 54.4926 85.2163 52.5516 82.1059ZM51.7108 81.3203C51.599 82.0106 51.5134 82.7879 51.4347 83.5182L50.6505 82.937C50.7402 82.2564 50.8314 81.5813 50.8907 80.8868C50.7789 80.8123 50.6657 80.7322 50.5539 80.6452C50.3951 81.5343 50.4158 82.0437 50.3634 82.7161L49.0104 81.711C49.2479 81.4736 49.4715 81.3613 49.6814 81.3742C49.7476 80.9338 49.8042 80.4685 49.8539 79.9826C49.2258 79.2923 48.6639 78.3549 48.2249 77.1206L48.3822 79.0976L48.2359 79.0383C47.5224 78.783 46.926 78.277 46.5579 77.6146C46.1899 76.9521 46.0753 76.1784 46.2355 75.4377C45.5139 75.2061 44.9012 74.72 44.5115 74.07C44.1219 73.42 43.9819 72.6504 44.1177 71.9049L44.1384 71.7488L45.773 72.8726C44.9225 71.8745 44.3924 70.9205 44.108 70.0328C43.6616 69.8312 43.2313 69.6472 42.8172 69.4806C42.7251 69.6646 42.5167 69.8027 42.1918 69.8947C42.1117 69.2127 42.0537 68.7516 41.9957 68.2215C42.6073 68.5183 43.0408 68.7875 43.8912 69.094C43.8692 68.956 43.8567 68.8179 43.8485 68.6798C43.2175 68.3844 42.588 68.1276 41.9529 67.8626L41.8411 66.8962C42.5121 67.1916 43.2355 67.5091 43.883 67.7549C44.3082 64.6914 47.714 63.1341 48.9386 64.7715C49.1402 65.0415 49.2434 65.3723 49.2311 65.7091C49.2188 66.0458 49.0917 66.3682 48.871 66.6228C48.9552 65.7061 47.3606 64.6582 47.1232 66.8036C46.484 72.5523 46.2341 75.435 46.2341 75.435C46.2341 75.435 48.8572 76.6595 54.153 78.9803C56.1314 79.8459 56.0195 77.9421 55.1857 77.5569C55.5163 77.4932 55.8588 77.5447 56.1562 77.7026C56.4536 77.8606 56.6879 78.1156 56.8203 78.4253C57.6293 80.3139 54.5768 82.4841 51.7108 81.3203ZM46.2755 64.0632C45.2078 64.4433 44.3243 65.3021 43.6248 66.6394C41.9005 63.4075 46.4909 61.4581 46.2755 64.0674V64.0632ZM49.2755 69.8823C49.8397 69.5567 50.4879 69.4056 51.138 69.4484C51.7881 69.4911 52.411 69.7257 52.9278 70.1224C53.4446 70.5191 53.8321 71.0601 54.0414 71.6771C54.2507 72.2941 54.2724 72.9593 54.1036 73.5886C53.9348 74.2178 53.5833 74.7829 53.0933 75.2124C52.6034 75.6419 51.9971 75.9164 51.3512 76.0013C50.7052 76.0862 50.0486 75.9776 49.4643 75.6893C48.8801 75.401 48.3945 74.9459 48.0688 74.3816C47.6336 73.6253 47.5162 72.7272 47.7424 71.8845C47.9686 71.0417 48.52 70.3231 49.2755 69.8865V69.8823ZM50.3509 60.7568V58.8875H39.9055V56.3251H50.3509V44.796H61.9781V34.352H64.5404V44.796H76.1703V56.3251H86.6129V58.8875H76.1703V60.7609C76.1703 67.4028 71.0263 72.9513 64.5404 73.6002V88.1818C64.1179 88.2052 63.69 88.2177 63.2592 88.2177C62.8285 88.2177 62.4033 88.2052 61.9781 88.1818V73.6043C55.4949 72.9513 50.3509 67.4028 50.3509 60.7609V60.7568Z" fill="#959595"/>
<path d="M47.7111 46.5632C47.6365 46.5743 47.7925 46.5632 47.7111 46.5632V46.5632Z" fill="#959595"/>
<path d="M52.7544 72.2776C52.9629 72.1561 53.6946 71.4672 53.551 71.2201C53.4074 70.973 52.4466 71.2629 52.2367 71.383C52.1181 71.4516 52.0316 71.5646 51.9962 71.697C51.9609 71.8295 51.9796 71.9705 52.0483 72.0892C52.1169 72.2078 52.2299 72.2943 52.3623 72.3296C52.4947 72.365 52.6358 72.3462 52.7544 72.2776Z" fill="#959595"/>
<path d="M51.3819 74.5719C51.5034 74.7804 52.1923 75.5107 52.4394 75.3685C52.6866 75.2263 52.3994 74.264 52.2779 74.0542C51.9341 73.4619 51.0395 73.9782 51.3819 74.5719Z" fill="#959595"/>
<path d="M49.9534 74.3608C49.8913 74.5941 49.8609 75.6033 50.1371 75.6709C50.4132 75.7386 50.8881 74.8619 50.9516 74.6286C51.1269 73.9659 50.1302 73.6995 49.9534 74.3608Z" fill="#959595"/>
<path d="M52.5431 73.7073C52.7764 73.7694 53.7856 73.7998 53.8546 73.5237C53.9236 73.2476 53.0442 72.7727 52.8109 72.7105C52.1496 72.5366 51.8859 73.5306 52.5431 73.7073Z" fill="#959595"/>
<path d="M49.0889 73.1993C48.879 73.3208 48.1487 74.0097 48.2923 74.2568C48.331 74.3272 48.4386 74.3534 48.5684 74.3534C48.9252 74.332 49.2749 74.2445 49.5997 74.0953C49.7113 74.0233 49.7909 73.9111 49.8222 73.7821C49.8534 73.653 49.8338 73.5169 49.7675 73.4018C49.7012 73.2867 49.5932 73.2016 49.4659 73.1639C49.3386 73.1262 49.2016 73.1389 49.0834 73.1993H49.0889Z" fill="#959595"/>
<path d="M72.5353 74.8047L72.6734 75.3348C72.7217 75.5254 72.8335 75.691 73.031 75.691C73.2284 75.691 73.3402 75.524 73.3858 75.3348L73.5238 74.8033C74.2321 74.8033 74.337 74.7605 74.4612 74.113H71.5966C71.7222 74.7633 71.8354 74.8075 72.5353 74.8047Z" fill="#959595"/>
<path d="M82.7295 6.96904C82.7496 6.98555 82.7686 7.00355 82.7861 7.02289C83.9181 8.08592 84.9522 8.7693 85.8661 9.19452C85.9042 9.20635 85.9408 9.22256 85.9752 9.24284C87.306 9.83786 88.376 9.88756 89.1229 9.78264C90.4703 9.59212 91.1288 8.86318 91.2213 8.55946C91.8702 6.45547 90.9452 4.92994 88.4837 4.02567C85.8606 3.05927 81.3599 2.97368 79.3954 2.98472C80.367 4.42374 81.4843 5.75889 82.7295 6.96904Z" fill="#959595"/>
<path d="M89.1989 33.1409H89.2086C89.6786 33.2268 90.163 33.1868 90.6126 33.0249C91.695 32.6191 92.2472 31.5063 92.4074 31.135C91.8883 29.0406 92.3245 26.6785 92.515 25.8294C90.9629 25.6469 89.4353 25.296 87.9592 24.783C87.5616 25.8101 86.591 28.6361 87.0549 30.7567C87.1307 31.1155 87.2547 31.4624 87.4235 31.788H89.1823V33.1354L89.1989 33.1409Z" fill="#959595"/>
<path d="M90.3076 43.4067C91.6482 43.5931 93.3573 42.8807 93.7439 40.2549C94.1042 37.8126 92.8575 33.6378 92.5966 32.7998C92.1721 33.3347 91.614 33.7481 90.9786 33.9981C90.5678 34.1512 90.133 34.2293 89.6946 34.2287C89.5331 34.2287 89.2128 34.1942 89.2128 34.1942L89.2211 42.831C89.5023 43.1473 89.888 43.3517 90.3076 43.4067Z" fill="#959595"/>
<path d="M92.8342 108.199C89.797 110.794 75.6337 117.217 75.1629 112.928C75.203 111.429 79.4855 112.022 80.7101 112.022C83.1564 112.022 83.1564 108.295 80.7101 108.295C76.1342 109.202 71.4968 109.764 66.8367 109.978V114.513C69.624 114.388 72.4031 114.12 75.1629 113.711V117.455C75.1629 122.437 92.4822 114.579 95.8397 111.717L91.5406 112.283L92.8342 108.199Z" fill="#959595"/>
<path d="M97.5131 25.0796C96.0815 23.7349 95.0902 22.3185 94.9535 20.6024C93.5953 19.8993 92.3699 18.965 91.3323 17.8413C89.1151 15.3811 88.7092 12.152 88.6361 10.8625C88.5905 10.8625 88.5449 10.8625 88.498 10.8625C87.5489 10.8492 86.6122 10.645 85.7438 10.262C83.9049 11.5307 82.8032 13.3889 82.6541 15.533C82.476 18.0332 83.5901 20.5776 85.6306 22.3392C88.4538 24.7704 94.4331 25.0906 97.5131 25.0796Z" fill="#959595"/>
<path d="M96.3996 34.0527C97.199 34.2197 97.7802 34.0416 98.0452 33.8387C98.9509 33.1291 99.0793 32.3283 99.0945 32.0798C97.8285 30.107 97.2445 27.1912 97.0637 26.1185C96.0683 26.1185 94.8548 26.073 93.5474 25.9487C93.3679 26.7218 92.719 29.9441 93.8235 31.997C94.6173 33.4839 95.7797 33.9229 96.3996 34.0527Z" fill="#959595"/>
<path d="M94.7238 40.6363C95.0637 41.3645 95.6445 41.953 96.3681 42.3026C96.8444 42.5304 97.9129 42.6298 98.8048 42.1425C99.5627 41.7283 100.009 40.9897 100.136 39.9515C100.394 37.8296 99.5696 35.2258 99.1927 34.1808C99.0354 34.3516 98.8641 34.5091 98.6805 34.6515C98.2664 34.9787 97.6741 35.1513 97.0238 35.1513C96.7455 35.1504 96.468 35.1213 96.1955 35.0643C95.3702 34.8871 94.6088 34.4881 93.9935 33.9102C94.456 35.6538 95.0552 38.466 94.7694 40.4057C94.7542 40.4858 94.739 40.559 94.7238 40.6363Z" fill="#959595"/>
<path d="M88.8385 3.05391C93.023 4.5891 92.5923 7.62911 92.2126 8.86472C91.9876 9.58814 91.0529 10.4151 89.6668 10.7271C89.7276 11.8316 90.081 14.8978 92.1008 17.1426C92.9425 18.0569 93.9233 18.8327 95.0069 19.4413C97.3111 19.2852 98.7027 19.5793 99.1721 20.329C99.4676 20.3075 99.7541 20.2181 100.009 20.0677C100.265 19.9173 100.482 19.71 100.644 19.462C101.722 17.8136 100.23 16.861 98.5577 16.9949C98.4181 17.0056 98.28 16.9606 98.1734 16.8698C98.0669 16.7791 98.0005 16.6498 97.9889 16.5103C97.9268 15.7096 101.638 15.1145 102.559 15.682C103.628 14.017 104.26 12.1091 104.396 10.1348C100.238 6.20482 95.4947 3.97152 90.1666 3.43494C90.3212 0.697277 85.5472 -0.140728 80.0029 1.95221H80.0112C82.2435 1.95912 86.2927 2.12755 88.8385 3.05391ZM94.1882 7.08793C96.3433 7.08793 98.1518 7.95216 99.9866 9.37829L96.7699 8.86886C96.5222 9.18236 96.1646 9.38993 95.7696 9.4495C95.3745 9.50907 94.9716 9.41617 94.6425 9.18964C94.3134 8.96311 94.0828 8.6199 93.9974 8.22962C93.912 7.83933 93.9783 7.43118 94.1827 7.08793H94.1882Z" fill="#959595"/>
<path d="M98.1157 26.1117C98.3642 27.4923 99.1553 31.1301 100.797 32.5106C102.092 33.5957 103.334 33.5778 103.957 33.4674C104.76 33.3293 105.241 32.9455 105.406 32.6611C105.581 32.3635 105.697 32.0356 105.749 31.6947C103.417 29.4858 100.779 27.7891 98.6859 26.0896L98.1157 26.1117Z" fill="#959595"/>
<path d="M103.381 34.5518C102.436 34.5437 101.513 34.2596 100.727 33.7345C101.101 34.8389 102.121 37.3902 103.87 38.4698C106.108 39.8504 107.988 38.6258 108.5 37.8555C108.915 37.2328 109.079 36.4749 109.137 35.8385C108.42 34.6476 107.57 33.5425 106.602 32.5444C106.522 32.7662 106.423 32.9805 106.305 33.185C105.927 33.8297 105.117 34.3171 104.138 34.4869C103.888 34.5303 103.635 34.552 103.381 34.5518Z" fill="#959595"/>
<path d="M102.082 58.5515C102.567 61.1636 103.267 63.731 104.176 66.2274C105.448 69.6236 107.945 74.41 112.308 73.26L102.63 58.1787C102.451 58.303 102.268 58.4286 102.082 58.5515Z" fill="#959595"/>
<path d="M119.552 76.1373L106.062 55.114C105.29 55.9917 104.439 56.7967 103.519 57.519L114.329 74.4144C114.94 75.1754 115.759 75.7431 116.685 76.0489C117.612 76.3546 118.608 76.3853 119.552 76.1373Z" fill="#959595"/>
<path d="M119.97 77.7354C118.532 78.114 117.008 78.0028 115.639 77.4192C110.504 79.4984 103.49 74.7064 100.412 59.3048L96.7119 61.0043C96.803 63.579 96.5738 67.4805 94.8247 69.5251C93.9549 70.5426 93.052 70.9816 93.3737 70.2348C94.6998 67.1856 95.2863 63.8662 95.0856 60.5473C95.074 60.386 95.1123 60.2251 95.1953 60.0863C95.2782 59.9475 95.4019 59.8376 95.5495 59.7714C97.9365 58.6753 100.243 57.8041 102.334 56.1819C107.374 52.2473 108.814 46.8976 110.997 40.634C110.759 39.4801 110.388 38.3576 109.892 37.2889C109.767 37.6939 109.585 38.0796 109.354 38.4347C108.771 39.3073 107.478 40.1301 105.915 40.1301C104.995 40.1206 104.096 39.8521 103.322 39.3556C102.335 38.7481 101.565 37.7831 100.975 36.8098C101.171 37.859 101.283 39.0187 101.152 40.0831C100.943 41.8116 100.024 42.6524 99.2908 43.0555C98.696 43.3721 98.0318 43.5358 97.358 43.5318C96.8613 43.5411 96.3685 43.4421 95.9139 43.2419C95.2943 42.9452 94.7511 42.5102 94.3263 41.9704C93.5808 43.7113 92.1394 44.4733 90.7147 44.4733C90.3364 44.4733 89.3935 44.3753 89.1685 44.113V64.8989C89.1665 68.3535 88.472 71.7726 87.1258 74.9542C85.7796 78.1357 83.8092 81.0151 81.331 83.4219C90.0893 88.0179 90.3433 100.418 81.6071 96.1232C81.2261 95.9037 80.799 95.7767 80.36 95.7523C79.921 95.728 79.4824 95.8071 79.0796 95.9831C78.6767 96.1592 78.3208 96.4273 78.0404 96.766C77.7601 97.1047 77.5631 97.5044 77.4654 97.9331L78.2399 98.4204C78.5019 97.9844 78.8625 97.6158 79.2928 97.3444C79.723 97.073 80.211 96.9062 80.7173 96.8574C81.2237 96.8087 81.7345 96.8794 82.2086 97.0638C82.6827 97.2482 83.107 97.5412 83.4474 97.9193C83.0679 97.6731 82.6346 97.5222 82.1843 97.4792C81.734 97.4362 81.28 97.5025 80.8607 97.6724C80.4415 97.8423 80.0695 98.1108 79.7762 98.4552C79.4829 98.7996 79.2769 99.2096 79.1759 99.6505C79.4262 99.827 79.6856 99.9902 79.9532 100.139C80.2147 99.7029 80.575 99.334 81.0051 99.0622C81.4352 98.7905 81.9231 98.6234 82.4295 98.5745C82.9359 98.5257 83.4466 98.5963 83.9208 98.7808C84.3949 98.9653 84.8191 99.2584 85.1593 99.6367C84.7799 99.3902 84.3466 99.239 83.8961 99.1959C83.4457 99.1528 82.9916 99.2192 82.5723 99.3893C82.1531 99.5594 81.7811 99.8282 81.4881 100.173C81.195 100.518 80.9896 100.928 80.8892 101.369C81.6742 101.935 82.5666 102.335 83.5116 102.543C84.4567 102.751 85.4343 102.764 86.3844 102.58C87.3346 102.397 88.2372 102.021 89.0367 101.476C89.8362 100.931 90.5158 100.228 91.0336 99.4103C91.5202 99.6259 92.0657 99.6696 92.5804 99.5344C93.0952 99.3992 93.5487 99.093 93.8665 98.6662C97.5375 91.2857 95.8477 94.6998 97.525 91.4872C90.9094 89.1568 91.8799 77.4952 96.491 75.0308C95.809 75.8274 94.5389 80.1707 94.5582 83.2328C94.5969 88.4375 101.018 86.6055 102.4 94.0012C103.123 97.8668 100.837 101.652 96.5545 100.934C96.0826 100.823 95.5911 100.823 95.1194 100.936C94.6477 101.048 94.209 101.27 93.8388 101.583C93.4685 101.897 93.1769 102.292 92.9875 102.739C92.7981 103.185 92.7162 103.67 92.7483 104.154L93.7147 104.43C93.8541 103.887 94.119 103.384 94.488 102.961C94.8569 102.539 95.3198 102.209 95.8394 101.997C96.359 101.786 96.9209 101.7 97.48 101.745C98.0391 101.79 98.5798 101.965 99.0589 102.257C98.5804 102.116 98.075 102.093 97.5857 102.19C97.0964 102.286 96.6376 102.5 96.2483 102.811C95.859 103.123 95.5506 103.524 95.3494 103.98C95.1482 104.437 95.06 104.935 95.0925 105.432C95.4096 105.541 95.7322 105.633 96.0589 105.708C96.1982 105.165 96.4629 104.662 96.8318 104.239C97.2007 103.817 97.6636 103.486 98.1832 103.275C98.7028 103.063 99.2647 102.977 99.8239 103.022C100.383 103.067 100.924 103.242 101.403 103.534C100.925 103.394 100.419 103.371 99.9303 103.468C99.4412 103.564 98.9827 103.777 98.5935 104.089C98.2044 104.401 97.8961 104.802 97.695 105.258C97.4938 105.714 97.4057 106.212 97.4381 106.709C98.4459 107.06 99.5148 107.2 100.579 107.122C101.643 107.044 102.68 106.749 103.626 106.255C104.572 105.762 105.407 105.08 106.08 104.251C106.752 103.423 107.248 102.466 107.537 101.438C108.12 101.512 108.71 101.386 109.211 101.08C109.713 100.775 110.096 100.308 110.298 99.7568V86.3625C108.873 86.3684 107.467 86.0422 106.19 85.41C104.914 84.7777 103.802 83.8568 102.943 82.7201C102.084 81.5834 101.502 80.2623 101.243 78.8615C100.983 77.4606 101.054 76.0186 101.449 74.6498C107.045 81.2586 115.116 82.9125 120.206 77.7713L120.119 77.6884C120.072 77.7064 120.021 77.7216 119.97 77.7354Z" fill="#959595"/>
<path d="M121.67 66.462L124.116 70.2737C124.896 67.1702 124.888 63.6622 124.091 59.7497C122.864 53.7138 110.867 33.6569 117.741 33.6956C117.743 34.2994 117.967 34.8813 118.37 35.3309C118.773 35.7806 119.327 36.0666 119.927 36.1347C120.527 36.2028 121.131 36.0483 121.625 35.7005C122.118 35.3526 122.467 34.8357 122.605 34.2478C123.306 31.0091 123.024 27.6346 121.794 24.5575C120.564 21.4804 118.442 18.841 115.702 16.9783C116.843 20.1632 114.414 24.8586 113.674 31.0863C112.06 44.6946 122.505 54.2274 121.67 66.462Z" fill="#959595"/>
<path d="M109.269 50.1868C108.597 51.5911 107.785 52.9237 106.845 54.1642L120.806 75.9882C121.55 76.9156 122.547 77.6073 123.676 77.9798C124.805 78.3522 126.018 78.3893 127.168 78.0867L109.269 50.1868Z" fill="#959595"/>
</svg>
