<svg width="51" height="48" viewBox="0 0 51 48" fill="none" xmlns="http://www.w3.org/2000/svg">
<path d="M3.06889 10.86C3.30729 11.0173 4.11408 10.354 4.81437 9.56814C4.91737 9.37278 5.03218 9.18389 5.15816 9.0025C5.13609 9.0025 5.11402 9.00968 5.09249 9.00968C4.9948 9.01196 4.89868 8.98485 4.81657 8.93187C4.59584 8.78673 4.53513 8.52681 4.55721 8.22551C4.5602 8.22298 4.56216 8.21945 4.56273 8.21558C4.0749 8.68713 3.62021 9.19179 3.20189 9.72597C3.20752 9.72382 3.21248 9.7202 3.21623 9.71548C2.99108 10.2684 2.89561 10.7458 3.06889 10.86Z" fill="white"/>
<path d="M5.95079 8.63579C5.94674 8.64573 5.94155 8.65517 5.93534 8.66393C5.52918 9.13741 4.90726 10.0502 4.9652 10.485C4.96766 10.5171 4.97745 10.5482 4.9938 10.576C5.01016 10.6037 5.03266 10.6273 5.05957 10.645C5.28693 10.7984 6.10806 10.2273 6.88064 9.50825C6.76933 9.50983 6.66004 9.47833 6.56664 9.41774C6.48748 9.36451 6.42086 9.29468 6.3714 9.21311C6.32194 9.13153 6.29084 9.04017 6.28024 8.94537C6.2543 8.74671 6.30231 8.51604 6.39061 8.2793C6.25036 8.40577 6.10355 8.52476 5.95079 8.63579Z" fill="white"/>
<path d="M4.55887 10.5532C4.30778 11.3809 3.32661 14.1904 1.12366 16.0953C1.63797 16.1317 2.49443 16.1102 3.2499 15.7002C4.81106 14.8531 6.39981 12.1237 6.74912 11.4996C6.52177 11.1801 6.63876 10.6211 6.83631 10.1084C6.28447 10.5918 5.61233 11.0736 5.13168 11.0736C5.02408 11.0766 4.91814 11.0466 4.82817 10.9875C4.75513 10.9382 4.69336 10.8741 4.64694 10.7992C4.60052 10.7243 4.5705 10.6405 4.55887 10.5532Z" fill="white"/>
<path d="M5.04688 8.58706C5.29079 8.74765 6.31335 7.90112 7.24927 6.76323C7.1114 6.64698 6.98767 6.51492 6.88064 6.36977C6.88064 6.36977 6.88064 6.36977 6.88064 6.36646C6.77855 6.43268 6.67536 6.5011 6.57217 6.57284C6.04589 6.93574 5.54189 7.32991 5.06288 7.75323C5.06991 7.75045 5.07643 7.74654 5.08219 7.74164C4.94313 8.15994 4.90616 8.4938 5.04688 8.58706Z" fill="white"/>
<path d="M8.81998 12.1711C8.79901 12.1613 8.77872 12.1501 8.75928 12.1375C8.40003 11.8996 8.4199 11.4488 8.5562 11.0139C8.11473 11.393 7.60704 11.7313 7.20364 11.7313C7.16792 11.7311 7.13229 11.7277 7.09714 11.7214C6.78369 12.2848 5.66235 14.2129 4.35559 15.3966C6.69374 15.8055 8.3741 13.0121 8.81998 12.1711Z" fill="white"/>
<path d="M7.73284 9.20431C7.72941 9.21457 7.72517 9.22454 7.72015 9.23411C7.71889 9.23999 7.71704 9.24572 7.71463 9.25122C7.2119 10.0972 6.8521 11.1198 7.11588 11.293C7.3631 11.4586 8.1561 10.8764 8.85859 10.1579C8.83517 10.1472 8.81266 10.1347 8.79127 10.1204C8.34593 9.82513 8.50486 9.0796 8.76423 8.42456C8.44469 8.71509 8.09948 8.97608 7.73284 9.20431Z" fill="white"/>
<path d="M7.52886 30.0202C5.96936 25.7358 4.21229 21.6323 4.58644 16.8622C4.61569 16.3473 5.21223 16.3594 5.18077 16.8964C4.74537 21.5318 6.56976 25.5801 8.09229 29.8133C9.02655 29.2615 9.27709 28.341 8.83451 27.0249C7.69165 23.067 6.54989 19.2229 7.17899 14.9351C6.52837 15.4654 5.7442 15.8584 4.85077 15.8584C4.54968 15.8565 4.25031 15.8128 3.96121 15.7287C3.79936 15.853 3.62835 15.965 3.44965 16.0636C2.76757 16.4339 2.02866 16.5239 1.4713 16.5239C1.2046 16.5245 0.93829 16.5034 0.674993 16.461C0.529307 16.5713 0.377551 16.6762 0.22138 16.7766C0.251547 16.5846 0.285026 16.3927 0.321815 16.201C2.43371 14.6664 3.5534 12.1533 3.99597 10.9304C3.72005 11.1407 3.42537 11.2891 3.13731 11.2891C3.03301 11.2911 2.93053 11.2617 2.84318 11.2047C2.64893 11.0761 2.57884 10.857 2.57995 10.5977C2.58212 10.5937 2.58344 10.5894 2.58381 10.585C0.578973 13.5798 -0.170979 17.1375 0.0320986 20.767C0.380862 27.0028 3.20353 30.7581 5.25582 36.2847C6.41083 36.1341 7.00461 34.9101 6.55762 33.8423C4.61072 29.0247 2.07391 24.6701 2.18428 19.2643C2.18428 18.7489 2.77971 18.7263 2.77971 19.2643C2.5954 24.413 5.15263 28.7781 7.01399 33.3815C7.95322 32.5946 8.12485 31.4742 7.52886 30.0202Z" fill="white"/>
<path d="M7.95714 7.14925C7.84913 7.11813 7.74436 7.07674 7.64424 7.02563C7.20829 7.56092 6.62886 8.44828 6.68846 8.8903C6.69121 8.92718 6.70233 8.96295 6.72098 8.99489C6.73962 9.02683 6.7653 9.05409 6.79607 9.07462C7.11117 9.28597 8.36164 8.32798 9.33453 7.2999C9.29535 7.24472 9.26169 7.19339 9.2352 7.14814C8.8171 7.26392 8.37544 7.2643 7.95714 7.14925Z" fill="white"/>
<path d="M9.45693 10.1356C9.07727 10.7316 8.71471 11.6107 8.98953 11.7911C9.02742 11.8141 9.07188 11.8238 9.1159 11.8187C9.12288 11.8182 9.12989 11.8182 9.13687 11.8187C9.48397 11.7751 10.15 11.2034 10.6964 10.5555C10.4486 10.2642 10.5203 9.74543 10.6903 9.23608C10.2996 9.61741 9.85426 9.98272 9.45693 10.1356Z" fill="white"/>
<path d="M10.1997 7.935C9.98832 7.86873 9.79306 7.75917 9.62634 7.61328C9.1639 8.4118 8.71084 9.57232 9.02208 9.77815C9.05329 9.79372 9.08733 9.80277 9.12215 9.80476C9.15697 9.80675 9.19183 9.80164 9.2246 9.78974C9.24591 9.77913 9.26886 9.77223 9.29248 9.76932C9.75934 9.5966 10.5976 8.81188 11.2664 7.98467C11.2664 7.98467 11.2703 7.98467 11.2708 7.98026L11.326 7.88313C10.9697 8.0381 10.5688 8.05656 10.1997 7.935Z" fill="white"/>
<path d="M9.95514 13.7848C10.5809 13.3753 11.588 12.1596 12.3584 11.1613C12.8484 9.82202 12.5637 10.5786 12.8484 9.82202C12.2607 10.3054 11.598 10.7447 11.1256 10.7447C11.109 10.7447 11.0936 10.7447 11.0776 10.7419C10.7928 11.0874 9.95679 12.0377 9.27141 12.2016C8.90435 12.9372 8.4436 13.6222 7.90063 14.2395C8.40171 14.2693 9.26699 14.2379 9.95514 13.7848Z" fill="white"/>
<path d="M12.4299 8.4837C12.1401 8.46441 11.8628 8.35783 11.6347 8.17798C11.1783 8.97539 10.7391 10.1094 11.047 10.3153C11.3323 10.504 12.4266 9.71375 13.3967 8.77562C13.4562 8.58642 13.5036 8.39362 13.5386 8.1984C13.2425 8.38488 12.9001 8.48485 12.5502 8.48701C12.5099 8.48701 12.4696 8.48701 12.4299 8.4837Z" fill="white"/>
<path d="M8.07124 6.7523C8.46378 6.85834 8.87939 6.84158 9.26212 6.70429L9.45968 6.62206L9.53473 6.82128C9.53473 6.82569 9.75546 7.36429 10.32 7.53867C10.895 7.71747 11.2725 7.4421 11.2763 7.43934L11.4722 7.2931L11.5826 7.51053C11.5931 7.53095 11.8629 8.03036 12.4556 8.06954C12.9727 8.10541 13.3711 7.84108 13.5902 7.64738C13.6156 6.4234 12.9076 5.45271 10.9877 5.18893C9.82923 5.03 8.57563 5.35044 7.22693 6.15024H7.23245C7.37703 6.33511 7.66123 6.6342 8.07124 6.7523Z" fill="white"/>
<path d="M13.2071 10.7286C13.11 11.4052 13.1095 12.154 13.3848 12.2705C13.7126 12.4084 14.3345 11.6634 14.7186 11.0321C14.3699 10.8246 14.1453 10.2756 14.0101 9.79932C13.5233 10.2921 13.6961 10.0708 13.2071 10.7286Z" fill="white"/>
<path d="M13.4985 24.6443C13.4682 25.2056 13.4985 25.9406 13.8622 26.4025C14.1436 26.7618 14.5713 26.8787 15.004 26.8898C14.9531 26.4721 14.9273 26.0518 14.9267 25.631V16.6404C14.3714 16.2421 13.8724 15.7707 13.4434 15.2388C12.9158 15.9378 12.3886 16.6379 11.8618 17.3391L11.8452 17.3617L11.0677 18.3986C10.8853 18.6374 10.7915 18.9322 10.8025 19.2325C10.8135 19.5328 10.9285 19.8199 11.1278 20.0448C11.7967 20.8114 12.4651 21.5778 13.1332 22.3437C13.3152 22.5476 13.4496 22.7893 13.5267 23.0515C13.6038 23.3137 13.6217 23.5897 13.5791 23.8596C13.5416 24.1201 13.5107 24.38 13.4985 24.6443Z" fill="white"/>
<path d="M14.3386 9.42531L14.3419 9.42089C14.4915 10.0489 14.7558 10.7012 15.0179 10.7056H15.0213C15.3215 10.7056 15.5974 9.89768 15.7138 9.21947C15.4042 9.19684 15.0836 8.99377 14.7873 8.72281C14.7876 8.72025 14.7876 8.71765 14.7873 8.71509C14.6586 8.96437 14.5085 9.20201 14.3386 9.42531Z" fill="white"/>
<path d="M15.1187 11.1694C14.8715 11.5899 14.1541 12.6997 13.4632 12.6997C13.3807 12.6997 13.2991 12.6832 13.2231 12.6511C12.8275 12.4856 12.7265 11.9464 12.732 11.4034C12.5907 12.4773 12.8584 13.6588 13.3843 14.4617C13.8066 15.0937 14.3269 15.6544 14.9256 16.1228V12.3967H15.6534C15.4283 12.0097 15.2488 11.5979 15.1187 11.1694Z" fill="white"/>
<path d="M15.9943 6.18021C15.9927 6.16609 15.9927 6.15183 15.9943 6.13772C15.9943 6.12999 15.9943 6.12171 15.9943 6.11344C15.975 6.11344 15.954 6.11344 15.9341 6.11344C15.7791 6.11298 15.6244 6.09633 15.4728 6.06377C15.4727 6.05994 15.4717 6.05618 15.47 6.05273C15.4489 6.83579 15.2804 7.60786 14.9734 8.32853C14.9761 8.32706 14.9782 8.32473 14.9795 8.3219C15.3199 8.66294 15.6522 8.87761 15.8817 8.79042C16.422 8.58568 16.1952 6.95003 16.0004 6.19014C15.9979 6.18711 15.9959 6.18377 15.9943 6.18021Z" fill="white"/>
<path d="M14.023 40.3718C14.7443 35.9571 14.9932 33.9704 14.9932 33.9704C15.013 33.8777 15.0257 33.7944 15.0406 33.7232C15.1416 33.2381 15.7001 33.3728 15.7117 33.8292C15.7121 33.9507 15.7006 34.0719 15.6774 34.1912C15.0152 38.8609 14.7741 41.3452 14.7741 41.3452C14.3475 43.2877 16.9754 43.9709 17.1211 41.2901C17.1514 40.7349 17.1624 40.2002 17.1718 39.6439C17.227 36.3207 17.2513 34.2866 17.2513 34.2866L17.2447 32.145C16.1451 30.7955 15.4047 29.1899 15.0925 27.4775C14.4474 27.4775 13.8233 27.3025 13.4028 26.7656C12.7858 25.9776 12.8653 24.7205 13.0021 23.7796C13.0326 23.5928 13.0207 23.4016 12.9672 23.2201C12.9137 23.0386 12.82 22.8715 12.6931 22.7311L10.6882 20.4288C10.4007 20.1033 10.2349 19.6882 10.2189 19.2542C10.2029 18.8202 10.3377 18.394 10.6005 18.0482L13.0799 14.7465C13.0667 14.7272 13.0529 14.7084 13.0402 14.688C12.559 13.9541 12.2798 12.9282 12.2919 11.9194C11.5745 12.8167 10.7467 13.7604 10.1822 14.1318C9.52 14.5677 8.73418 14.6643 8.1702 14.6643C8.01182 14.6643 7.87441 14.6566 7.75963 14.6466H7.75687C7.78872 14.729 7.79806 14.8183 7.78391 14.9054C7.07038 19.1331 8.31147 23.0766 9.47254 27.0752C10.0144 26.8478 10.531 26.291 10.7517 25.5941C10.8448 25.3026 10.8806 24.9958 10.8571 24.6907C10.6447 23.2278 12.5402 24.1532 11.5226 26.5796C10.1618 29.8454 8.68837 33.1305 7.48095 36.4521C6.87006 38.1341 8.47923 38.5866 9.041 37.3069C10.026 35.0631 10.8726 32.7724 11.7621 30.4883C11.8355 30.1942 12.3167 30.2886 12.2213 30.6357C11.3383 33.1504 10.4984 35.8048 9.57242 38.293C8.95988 39.9342 10.8897 40.8552 11.3383 38.8156C11.8195 36.6237 12.591 34.2353 13.1875 32.028C13.3134 31.5644 13.9165 31.6086 13.7316 32.3828C12.4508 37.7583 11.9586 40.0368 11.9586 40.0368C11.2986 42.226 13.916 42.6459 14.023 40.3718Z" fill="white"/>
<path d="M15.4749 10.9153C15.5786 11.2784 15.8269 11.9478 16.158 12.3997H17.4825C17.7429 11.971 17.8814 11.3479 17.9316 10.9832C17.201 10.8242 16.4626 9.69738 16.1431 9.15161C16.0913 9.50479 15.913 10.4843 15.4749 10.9153Z" fill="white"/>
<path d="M18.1893 10.5709C18.6363 10.4186 18.6032 9.19573 18.4299 8.26367C18.3561 8.28934 18.2786 8.30276 18.2004 8.30341C17.632 8.30341 17.02 7.66437 16.5813 7.08936C16.6525 7.67431 16.6652 8.37625 16.4257 8.81386C16.903 9.66204 17.733 10.7254 18.1893 10.5709Z" fill="white"/>
<path d="M17.6066 5.25439C17.336 5.59405 16.9784 5.85414 16.5719 6.00711C16.512 6.02857 16.4511 6.04698 16.3893 6.06229C16.9047 6.93089 17.8318 8.05278 18.3075 7.87122C18.8163 7.67808 18.643 6.2157 18.4587 5.40946C18.1662 5.42874 17.8735 5.37548 17.6066 5.25439Z" fill="white"/>
<path d="M18.2975 11.283C18.2281 11.6678 18.1098 12.0423 17.9454 12.3971H19.1976C18.819 12.0423 18.5 11.5964 18.2975 11.283Z" fill="white"/>
<path d="M17.5695 34.7195C17.9927 35.044 18.3972 35.7934 18.8332 35.7625C19.1869 35.7376 19.3894 35.3039 19.1808 35.0169C18.9237 34.6615 18.0909 34.8343 17.5695 34.7195Z" fill="white"/>
<path d="M18.0812 36.4573L18.5828 36.6913C19.4608 37.1013 20.1395 36.4628 20.4916 36.2167L19.99 35.9827C19.1115 35.5732 18.723 36.401 18.0812 36.4573Z" fill="white"/>
<path d="M19.7313 34.2276L19.2302 33.9937C19.6 34.5212 19.2148 35.3517 20.0933 35.7595C20.2589 35.8374 20.4283 35.9152 20.5949 35.9935C20.5574 35.567 20.6098 34.6371 19.7313 34.2276Z" fill="white"/>
<path d="M20.7399 6.94775C21.2448 6.75626 21.0793 5.31595 20.8972 4.50806C20.7209 4.60205 20.5277 4.6602 20.3288 4.67914C20.1299 4.69809 19.9292 4.67745 19.7383 4.61842C19.5521 4.93363 19.2626 5.17464 18.9188 5.3005C19.4464 6.13985 20.2901 7.11771 20.7399 6.94775Z" fill="white"/>
<path d="M20.9357 9.79117C21.4511 9.57043 21.2398 8.13012 21.0146 7.26705C20.9734 7.29401 20.9296 7.31675 20.8838 7.33492C20.8027 7.36641 20.7165 7.38286 20.6294 7.38348C20.0605 7.38348 19.4474 6.74445 19.0092 6.16943C19.0854 6.79081 19.0948 7.54407 18.8062 7.97285C19.3977 8.86628 20.4335 10.0091 20.9357 9.79117Z" fill="white"/>
<path d="M18.5203 10.8558C18.7868 11.2972 19.3359 12.0698 19.8734 12.3965H20.7122C21.1465 11.9804 21.125 10.8464 21.0493 10.1864C20.9719 10.2141 20.8904 10.2286 20.8082 10.2294C20.1598 10.2294 19.4148 9.44913 18.9319 8.84155C19.0086 9.56722 18.9965 10.4987 18.5203 10.8558Z" fill="white"/>
<path d="M14.7281 3.73137C15.1762 4.13091 15.4163 4.83505 15.4615 5.64516C15.4618 5.64333 15.4618 5.64146 15.4615 5.63964C15.6928 5.69979 16.0614 5.75001 16.43 5.61812C16.8104 5.47318 17.1376 5.21583 17.3681 4.8803L17.4785 4.70041L17.6557 4.81574C17.6606 4.81574 18.1523 5.12643 18.713 4.9377C19.2836 4.7451 19.4304 4.30032 19.4304 4.29591L19.5032 4.06248L19.7206 4.17285C19.7416 4.18333 20.2532 4.42945 20.7553 4.11435C21.2989 3.77331 21.428 3.15635 21.4584 2.92789C18.277 -0.50787 13.6896 -0.625964 13.7834 1.06157C11.4502 1.06598 10.9635 2.09572 12.3166 3.79925C12.3938 2.98308 13.8645 2.9588 14.7281 3.73137ZM16.1237 1.18076C15.9776 1.34989 15.7787 1.4648 15.5592 1.5069C15.7463 2.07088 15.7099 2.13655 15.2888 1.69232C15.0526 1.44436 14.7364 1.27384 14.3402 1.18076C14.9347 0.743705 15.5292 0.743705 16.1237 1.18076Z" fill="white"/>
<path d="M20.0778 37.3877C20.9569 37.7972 21.6351 37.1592 21.9877 36.9126L21.4855 36.6791C20.607 36.2691 20.2163 37.098 19.5773 37.1537C19.7423 37.2321 19.9122 37.3099 20.0778 37.3877Z" fill="white"/>
<path d="M21.5874 36.4583L22.0891 36.6917C22.0521 36.264 22.104 35.3342 21.2254 34.9258L20.7244 34.6924C21.0935 35.2183 20.7089 36.0488 21.5874 36.4583Z" fill="white"/>
<path d="M23.1678 6.02588C23.2497 5.98998 23.3166 5.92679 23.3571 5.84709C22.9605 4.93451 22.4368 4.08267 21.8015 3.31689C21.7075 3.66696 21.5222 3.98577 21.2645 4.24068C21.781 5.10541 22.6943 6.20633 23.1678 6.02588Z" fill="white"/>
<path d="M21.571 38.0851C22.4495 38.4945 23.1283 37.8566 23.4804 37.6099L22.9788 37.3759C22.1008 36.9665 21.7095 37.7948 21.0699 37.8511L21.571 38.0851Z" fill="white"/>
<path d="M23.0818 37.1551L23.5835 37.3885C23.5459 36.9603 23.5984 36.0305 22.7198 35.6227L22.2188 35.3887C22.5879 35.9135 22.2039 36.7451 23.0818 37.1551Z" fill="white"/>
<path d="M23.0605 6.45851C22.4921 6.45851 21.8801 5.81948 21.4419 5.2417C21.5076 5.78802 21.523 6.43588 21.3315 6.8757C21.3358 6.8822 21.3395 6.88903 21.3426 6.89612C21.3492 6.91819 21.3608 6.95572 21.3746 7.00262C21.9678 7.8944 22.9788 8.99918 23.4749 8.78507C23.9567 8.57703 23.8027 7.30558 23.5969 6.43533C23.577 6.38015 23.5566 6.32883 23.5361 6.27585C23.4069 6.39453 23.2375 6.45981 23.0621 6.45851H23.0605Z" fill="white"/>
<path d="M23.311 40.2633L23.6256 40.1159L23.3712 39.5701L23.0577 39.7175C22.9928 39.7473 22.9197 39.7542 22.8504 39.7369C22.7811 39.7197 22.7197 39.6793 22.6764 39.6226L22.6212 39.5039C22.6055 39.4343 22.614 39.3615 22.6453 39.2973C22.6766 39.2332 22.7288 39.1817 22.7934 39.1513L23.1096 39.0045L22.8546 38.4587L22.539 38.6055C22.3692 38.6853 22.228 38.8152 22.1343 38.9777C22.0405 39.1402 21.9988 39.3275 22.0147 39.5144L21.6285 39.6938C21.4955 39.5614 21.3251 39.4729 21.1403 39.4404C20.9554 39.4078 20.7651 39.4327 20.5949 39.5117L20.1771 39.7059C20.0075 39.7858 19.8663 39.9158 19.7726 40.0782C19.6789 40.2407 19.6371 40.4279 19.6529 40.6148L19.2666 40.7947C19.1336 40.6624 18.9634 40.574 18.7787 40.5413C18.594 40.5087 18.4038 40.5333 18.2335 40.612L17.8152 40.8068C17.6067 40.9159 17.4483 41.1012 17.3729 41.3241C17.2975 41.5471 17.311 41.7905 17.4105 42.0037C17.51 42.217 17.6879 42.3837 17.9072 42.4691C18.1265 42.5545 18.3703 42.5521 18.5878 42.4623L19.0056 42.2675C19.1752 42.1878 19.3164 42.058 19.4101 41.8956C19.5038 41.7332 19.5456 41.546 19.5298 41.3592L19.9161 41.1793C20.0489 41.3116 20.2191 41.4001 20.4037 41.4327C20.5883 41.4654 20.7784 41.4407 20.9486 41.362L21.3663 41.1672C21.5361 41.0874 21.6774 40.9575 21.7712 40.795C21.8649 40.6325 21.9066 40.4452 21.8906 40.2583L22.2769 40.0789C22.4097 40.2117 22.5801 40.3005 22.765 40.3335C22.9499 40.3664 23.1405 40.3419 23.311 40.2633ZM18.7534 41.724L18.3356 41.9188C18.2983 41.9376 18.2575 41.9487 18.2158 41.9514C18.174 41.9542 18.1322 41.9485 18.0926 41.9348C18.0531 41.921 18.0168 41.8995 17.9858 41.8714C17.9547 41.8434 17.9297 41.8094 17.912 41.7714C17.8944 41.7335 17.8846 41.6924 17.8831 41.6506C17.8817 41.6088 17.8886 41.5671 17.9036 41.5281C17.9185 41.489 17.9412 41.4533 17.9702 41.4232C17.9992 41.3931 18.0339 41.369 18.0724 41.3526L18.4896 41.1578C18.5645 41.1242 18.6495 41.1214 18.7264 41.1501C18.8033 41.1787 18.8659 41.2365 18.9005 41.3109C18.9352 41.3853 18.9392 41.4703 18.9116 41.5476C18.8841 41.6249 18.8272 41.6883 18.7534 41.724ZM21.1141 40.6231L20.6958 40.8179C20.631 40.8479 20.5579 40.855 20.4886 40.8378C20.4192 40.8207 20.3578 40.7803 20.3145 40.7235L20.2593 40.6043C20.2439 40.5348 20.2525 40.4621 20.2838 40.3981C20.315 40.3341 20.3671 40.2827 20.4315 40.2522L20.8493 40.0569C20.8864 40.0395 20.9267 40.0296 20.9677 40.0277C21.0087 40.0259 21.0496 40.0321 21.0882 40.0461C21.1268 40.0601 21.1623 40.0816 21.1926 40.1093C21.2229 40.137 21.2474 40.1703 21.2648 40.2075C21.2822 40.2447 21.2921 40.2849 21.2939 40.3259C21.2958 40.3669 21.2895 40.4079 21.2755 40.4465C21.2615 40.4851 21.2401 40.5205 21.2124 40.5508C21.1847 40.5811 21.1513 40.6057 21.1141 40.6231Z" fill="white"/>
<path d="M18.3118 44.467C18.8018 44.467 20.5131 44.2297 20.5285 44.829C20.3525 46.4189 14.6983 43.9924 13.465 42.939L13.9837 44.5724L12.2653 44.3462C13.6404 45.5183 20.5302 48.4585 20.5302 46.6396V45.1436C21.6334 45.3072 22.7442 45.4143 23.8583 45.4642V43.6558C21.9943 43.5778 20.1396 43.3509 18.3118 42.977C17.335 42.977 17.335 44.467 18.3118 44.467Z" fill="white"/>
<path d="M21.2732 12.3187C21.2854 12.3425 21.3019 12.3695 21.3179 12.3966H23.9193C23.916 12.14 23.8976 11.8839 23.8641 11.6295C23.7368 11.68 23.601 11.7058 23.464 11.7057C22.7466 11.7057 21.9829 11.0683 21.5011 10.5793C21.5304 11.1047 21.5083 11.8039 21.2688 12.3116C21.2701 12.314 21.2716 12.3164 21.2732 12.3187Z" fill="white"/>
<path d="M23.3456 9.22368C22.749 9.22368 22.0708 8.56147 21.5907 7.98535C21.6978 8.64756 21.7353 9.44497 21.4296 9.89196C21.908 10.4593 23.0492 11.569 23.755 11.2274C24.4465 10.8924 24.2379 9.47753 24.0464 8.74413C23.9669 8.93027 23.8207 9.0799 23.6364 9.16353C23.5446 9.20326 23.4456 9.22374 23.3456 9.22368Z" fill="white"/>
<path d="M24.2269 11.39C24.2407 11.4127 24.2501 11.4378 24.2545 11.464C24.3035 11.7726 24.3317 12.0842 24.339 12.3966H25.6358C25.5303 12.3314 25.4332 12.2536 25.3466 12.1648C24.9526 11.7548 24.8047 11.156 24.9311 10.4795C24.9903 10.189 25.0901 9.90835 25.2274 9.64564V9.64233C25.1386 9.70378 25.0335 9.73757 24.9255 9.73944C24.8175 9.7413 24.7113 9.71116 24.6204 9.65282C24.6794 10.2747 24.6298 10.9828 24.2269 11.39Z" fill="white"/>
<path d="M26.575 12.1907C26.7199 12.1707 26.8591 12.1212 26.9841 12.0453C27.1091 11.9693 27.2172 11.8686 27.3018 11.7492C27.1459 11.4276 27.0718 11.0726 27.086 10.7156C27.0987 10.012 27.4811 9.34481 27.815 8.89451C27.6429 8.92244 27.4689 8.93646 27.2946 8.93644C26.9937 8.93041 26.7025 8.82896 26.463 8.64673C26.1766 8.94472 25.4972 9.72558 25.3405 10.5572C25.239 11.0986 25.3477 11.5687 25.6473 11.8816C25.7657 12.0039 25.9119 12.0959 26.0733 12.1497C26.2348 12.2035 26.4069 12.2175 26.575 12.1907Z" fill="white"/>
<path d="M27.1965 12.3966H27.893C27.7889 12.3349 27.6927 12.2608 27.6066 12.1759C27.5856 12.1543 27.563 12.1295 27.5409 12.1052C27.4414 12.2191 27.3253 12.3174 27.1965 12.3966Z" fill="white"/>
<path d="M27.2925 8.52193C27.6099 8.5275 27.9254 8.47127 28.2213 8.35638C28.1109 8.03245 28.0508 7.538 28.3041 6.92821C28.4222 6.65731 28.5867 6.40912 28.7902 6.19482C28.6462 6.18288 28.5043 6.15227 28.3681 6.10376C28.0761 6.00112 27.7826 5.68602 27.6076 5.30249C27.26 5.61097 26.4686 6.39182 26.3505 7.2102C26.2915 7.62298 26.366 7.95243 26.5713 8.18917C26.6623 8.29112 26.7732 8.37327 26.8973 8.43051C27.0214 8.48776 27.1559 8.51887 27.2925 8.52193Z" fill="white"/>
<path d="M26.0437 43.3189H25.93L26.0437 43.3161V42.4807H27.7384L28.8901 42.8267V41.2489L27.7384 41.5944H26.5166V35.9165C26.1781 35.9573 25.8356 35.9814 25.4891 35.9888V41.5944H25.084V35.9888C24.7367 35.9814 24.394 35.9573 24.0559 35.9165V41.5944H22.8369L21.6858 41.2489V42.8283L22.8369 42.4807H24.5316V46.6084L23.9704 47.7607H26.6077L26.0464 46.6084L26.0437 43.3189Z" fill="white"/>
<path d="M27.4989 10.7226C27.4889 11.3428 27.7108 11.696 27.8995 11.8814C27.9959 11.9797 28.1111 12.0574 28.2383 12.1099C28.3654 12.1624 28.5019 12.1887 28.6395 12.1871C29.267 12.1711 29.5291 11.6281 29.5318 11.6226C29.5346 11.6171 29.539 11.6143 29.5423 11.6088C29.4128 11.3288 29.3501 11.0226 29.3591 10.7143C29.3674 10.238 29.5832 9.7287 29.8464 9.2795C29.7388 9.30098 29.6294 9.31207 29.5197 9.31261C29.3757 9.31253 29.2321 9.29567 29.092 9.26239C28.847 9.20721 28.613 9.02951 28.4381 8.78174C28.1401 9.11781 27.5127 9.91412 27.4989 10.7226Z" fill="white"/>
<path d="M29.7901 11.9915C29.6722 12.1538 29.5235 12.2914 29.3525 12.3965H30.2907C30.1011 12.2923 29.9316 12.1551 29.7901 11.9915Z" fill="white"/>
<path d="M30.5147 35.8491L30.3359 35.5269L27.1313 37.3076L27.5099 37.5185L30.5147 35.8491Z" fill="white"/>
<path d="M28.5071 5.71383C29.0192 5.89429 29.3564 5.68293 29.3702 5.67355C29.375 5.6711 29.3799 5.66907 29.3851 5.66748C29.6687 5.45713 29.9704 5.27245 30.2868 5.11564C30.2903 4.73574 30.3928 4.36332 30.5842 4.03513C30.6231 3.96615 30.6657 3.89928 30.7117 3.83482C30.6341 3.82758 30.5576 3.81128 30.4838 3.78625C30.2631 3.70789 30.0633 3.48881 29.9546 3.20075C29.8871 3.01696 29.8587 2.82111 29.8713 2.62573C29.3912 2.77694 28.4238 3.15605 28.0441 3.83978C27.9382 4.02102 27.8746 4.22388 27.8582 4.43317C27.8417 4.64246 27.8728 4.85276 27.9492 5.04831C28.0833 5.4026 28.3316 5.65203 28.5071 5.71383Z" fill="white"/>
<path d="M31.0934 36.8898L30.9146 36.5681L28.3579 37.988L28.737 38.1983L31.0934 36.8898Z" fill="white"/>
<path d="M30.3971 5.68477C30.3796 5.63979 30.3645 5.59393 30.3518 5.54736C29.9363 5.7681 29.0015 6.32987 28.688 7.08645C28.4254 7.71886 28.5777 8.18406 28.688 8.40535C28.8105 8.64374 29.0009 8.81812 29.1847 8.86117C29.8248 9.01127 30.2359 8.68844 30.2398 8.68513H30.2437C30.4184 8.44839 30.6069 8.22211 30.8082 8.00747C30.8082 7.98981 30.8082 7.97326 30.8115 7.9556C30.8744 7.40376 31.296 6.81163 31.6453 6.40658C31.5857 6.4121 31.5267 6.41596 31.4682 6.41596C31.3454 6.41728 31.2229 6.4013 31.1045 6.3685C30.7944 6.27469 30.5361 6.02636 30.3971 5.68477Z" fill="white"/>
<path d="M30.6211 3.39574C30.9616 3.51549 31.2662 3.26882 31.269 3.26661H31.274C31.665 2.96854 32.0952 2.72583 32.5526 2.54536C32.1713 2.14959 31.8208 1.72527 31.5041 1.27612C31.2524 1.37766 30.7155 1.6431 30.439 2.13865C30.2078 2.55253 30.279 2.89246 30.3408 3.05802C30.4142 3.24785 30.5345 3.36539 30.6211 3.39574Z" fill="white"/>
<path d="M32.163 11.6012C32.0792 11.3673 32.0364 11.1207 32.0366 10.8722C32.0366 10.4274 32.1983 9.96387 32.4086 9.55109C32.3222 9.57075 32.2339 9.58111 32.1453 9.582C32.0575 9.58179 31.9699 9.57292 31.8838 9.55551C31.6416 9.49747 31.4192 9.37614 31.2394 9.20393C31.0595 9.03173 30.9286 8.81484 30.8601 8.57544C30.4694 9.04064 29.7868 9.96111 29.7741 10.7227C29.7564 11.807 30.6129 12.1497 30.9445 12.19C31.1833 12.2254 31.4271 12.1882 31.6444 12.0832C31.8617 11.9782 32.0424 11.8102 32.163 11.6012Z" fill="white"/>
<path d="M30.406 35.2282C30.565 35.3237 30.7923 35.4236 31.0495 35.2834L31.2426 35.1758C31.0876 35.173 30.9612 35.0566 30.8116 35.0053L30.9827 34.9098C31.1422 35.0053 31.369 35.1052 31.6262 34.965L31.8199 34.8546C31.6648 34.8546 31.5379 34.7349 31.3878 34.6835L31.5588 34.5886C31.7183 34.6841 31.9451 34.784 32.2028 34.6438L32.3965 34.5362C32.2409 34.5334 32.1151 34.417 31.965 34.3657L32.1532 34.2608L32.173 34.2493C32.306 34.1676 32.4214 33.9424 32.5505 33.8282C32.3695 33.8834 32.0853 33.8525 31.9573 33.9485L31.7845 34.0445C31.8204 33.8894 31.7873 33.7195 31.8679 33.5859L31.6747 33.693C31.4165 33.8359 31.3828 34.0837 31.3789 34.2697L31.2073 34.3646C31.2443 34.2095 31.2106 34.0396 31.2917 33.906L31.0975 34.0164C30.8403 34.1593 30.8056 34.4065 30.8028 34.5925L30.6306 34.688C30.6676 34.5329 30.634 34.3629 30.7145 34.2288L30.5208 34.3364C30.2642 34.4794 30.2295 34.7271 30.2261 34.9131L26.5161 36.9731L26.8958 37.1834L30.406 35.2282Z" fill="white"/>
<path d="M32.3723 12.0188C32.2481 12.1688 32.0987 12.296 31.9308 12.3946H32.7105C32.5811 12.2854 32.4673 12.1589 32.3723 12.0188Z" fill="white"/>
<path d="M32.3633 35.0824C32.3992 34.9274 32.3633 34.7574 32.4466 34.6233L32.2535 34.7337C31.9958 34.8766 31.961 35.1244 31.9577 35.3103L31.7861 35.4052C31.823 35.2502 31.7894 35.0802 31.8694 34.9467L31.6763 35.057C31.4191 35.2 31.3849 35.4472 31.3816 35.6332L31.2094 35.7281C31.2464 35.5736 31.2127 35.403 31.2933 35.2695L31.0996 35.3771C30.8419 35.52 30.8077 35.7673 30.8049 35.9538L27.7444 37.6535L28.1235 37.8637L30.9848 36.2744C31.1437 36.3704 31.3711 36.4703 31.6277 36.3296L31.8214 36.222C31.6658 36.2192 31.5394 36.1028 31.3898 36.0515L31.5609 35.956C31.7204 36.0515 31.9472 36.1513 32.2044 36.0112L32.3975 35.9008C32.2424 35.9008 32.1166 35.7816 31.966 35.7303L32.137 35.6354C32.2965 35.7308 32.5233 35.8307 32.781 35.6906L32.9742 35.5829C32.8197 35.5802 32.6933 35.4637 32.5437 35.4119L32.7308 35.3076C32.738 35.3041 32.745 35.3003 32.7518 35.296C32.8842 35.2143 33.0001 34.9897 33.1292 34.8749C32.9482 34.9301 32.6635 34.8992 32.536 34.9947L32.3633 35.0824Z" fill="white"/>
<path d="M31.9649 9.14905C32.4262 9.24342 32.7507 8.94321 32.8053 8.88858C32.9632 8.65865 33.1358 8.43912 33.3219 8.23134C32.881 7.62416 32.6365 6.89666 32.621 6.14648C32.5487 6.17573 32.466 6.20664 32.3766 6.23754C32.211 6.39647 31.3088 7.27941 31.226 8.00012C31.1316 8.80084 31.7276 9.10159 31.9649 9.14905Z" fill="white"/>
<path d="M30.3972 39.7059L29.9801 39.5117C29.8098 39.4327 29.6195 39.4078 29.4347 39.4404C29.2498 39.4729 29.0795 39.5614 28.9465 39.6938L28.5602 39.5144C28.5761 39.3275 28.5344 39.1402 28.4406 38.9777C28.3469 38.8152 28.2057 38.6853 28.0359 38.6055L27.7203 38.4587L27.4664 39.0045L27.7815 39.1513C27.846 39.1819 27.8981 39.2334 27.9295 39.2974C27.9609 39.3615 27.9696 39.4343 27.9542 39.5039L27.8991 39.6226C27.8559 39.6795 27.7947 39.7199 27.7254 39.7371C27.6561 39.7544 27.5831 39.7475 27.5183 39.7175L27.2037 39.5701L26.9482 40.1159L27.2639 40.2633C27.4341 40.342 27.6244 40.3668 27.8091 40.3341C27.9938 40.3014 28.1641 40.213 28.2969 40.0806L28.6832 40.2599C28.6671 40.4469 28.7087 40.6343 28.8024 40.7968C28.8962 40.9594 29.0376 41.0892 29.2075 41.1688L29.6252 41.3636C29.7954 41.4424 29.9855 41.4671 30.1701 41.4344C30.3547 41.4017 30.5249 41.3133 30.6577 41.181L31.044 41.3609C31.0283 41.5477 31.0701 41.7348 31.1638 41.8972C31.2575 42.0595 31.3986 42.1894 31.5683 42.2692L31.986 42.464C32.0955 42.5213 32.2155 42.5558 32.3387 42.5654C32.4619 42.575 32.5857 42.5596 32.7028 42.52C32.8198 42.4804 32.9277 42.4175 33.0197 42.3351C33.1118 42.2527 33.1862 42.1524 33.2385 42.0405C33.2907 41.9285 33.3198 41.8071 33.3238 41.6836C33.3278 41.5601 33.3068 41.437 33.2619 41.3219C33.2171 41.2067 33.1493 41.1019 33.0628 41.0136C32.9763 40.9254 32.8728 40.8556 32.7586 40.8085L32.3414 40.6137C32.1711 40.535 31.9809 40.5103 31.7962 40.543C31.6115 40.5756 31.4413 40.664 31.3083 40.7963L30.922 40.6164C30.9382 40.4292 30.8965 40.2415 30.8027 40.0787C30.7088 39.9159 30.5673 39.7858 30.3972 39.7059ZM30.3134 40.6043L30.2582 40.7235C30.215 40.7804 30.1537 40.8207 30.0845 40.8379C30.0152 40.8551 29.9421 40.848 29.8774 40.8179L29.4591 40.6231C29.384 40.588 29.326 40.5246 29.2977 40.4467C29.2693 40.3688 29.2731 40.2829 29.3082 40.2078C29.3432 40.1327 29.4067 40.0746 29.4846 40.0463C29.5624 40.018 29.6484 40.0218 29.7234 40.0569L30.1412 40.2522C30.2056 40.2826 30.2578 40.334 30.2891 40.398C30.3204 40.462 30.329 40.5348 30.3134 40.6043ZM31.6665 41.309C31.7016 41.234 31.765 41.176 31.8427 41.1477C31.9205 41.1193 32.0064 41.123 32.0815 41.1578L32.4992 41.3526C32.537 41.3695 32.571 41.3938 32.5993 41.424C32.6276 41.4542 32.6496 41.4898 32.6641 41.5286C32.6785 41.5673 32.6851 41.6086 32.6835 41.65C32.6818 41.6913 32.672 41.732 32.6545 41.7695C32.637 41.807 32.6123 41.8407 32.5817 41.8685C32.551 41.8964 32.5152 41.9179 32.4762 41.9318C32.4372 41.9457 32.3958 41.9517 32.3545 41.9495C32.3132 41.9472 32.2727 41.9368 32.2354 41.9188L31.8171 41.724C31.7423 41.6888 31.6844 41.6254 31.6561 41.5476C31.6279 41.4698 31.6316 41.384 31.6665 41.309Z" fill="white"/>
<path d="M30.9446 4.23793C30.6902 4.6932 30.63 5.16392 30.779 5.52979C30.8717 5.75439 31.0323 5.91607 31.2205 5.97126C31.4909 6.05017 31.8717 5.97126 32.1951 5.8642C32.347 5.81369 32.4961 5.75474 32.6415 5.68761C32.6941 5.27441 32.8283 4.87578 33.0362 4.51485C33.2442 4.15393 33.5217 3.8379 33.8528 3.5851C33.5031 3.38015 33.177 3.13735 32.8804 2.86108C32.5234 2.99132 31.38 3.45652 30.9446 4.23793Z" fill="white"/>
<path d="M33.3307 36.3284C33.4626 36.2467 33.579 36.0221 33.7076 35.9074C33.5271 35.9625 33.2424 35.9316 33.1149 36.0271L32.9416 36.1237C32.9775 35.9681 32.9416 35.7986 33.0255 35.6646L32.8318 35.7749C32.5741 35.9178 32.5393 36.1651 32.536 36.3516L32.3649 36.4465C32.4008 36.2914 32.3683 36.1215 32.4483 35.9879C32.3837 36.0232 32.3197 36.0597 32.2546 36.095C31.9974 36.2379 31.9627 36.4857 31.9593 36.6717L31.7877 36.7666C31.8247 36.6121 31.791 36.4415 31.8716 36.308L31.6785 36.4156C31.4207 36.5585 31.386 36.8058 31.3832 36.9917L28.9717 38.331L29.3513 38.5413L31.5631 37.3135C31.7221 37.4084 31.9494 37.5088 32.206 37.3659C32.2706 37.33 32.3357 37.2947 32.3992 37.2588C32.2441 37.2561 32.1177 37.1396 31.9682 37.0878L32.1392 36.9928C32.2993 37.0883 32.5255 37.1882 32.7827 37.048L32.9758 36.9376C32.8208 36.9376 32.6955 36.8184 32.5448 36.7671L32.7159 36.6717C32.8754 36.7677 33.1022 36.8676 33.3594 36.7268L33.5525 36.6192C33.398 36.6165 33.2716 36.5 33.1221 36.4482L33.3097 36.3439L33.3307 36.3284Z" fill="white"/>
<path d="M33.9571 8.93206C33.8236 8.81649 33.6981 8.69204 33.5813 8.55957C33.3606 8.81507 32.444 9.932 32.4484 10.8707C32.4522 11.545 32.7795 11.9192 32.9743 12.0803C33.2248 12.2895 33.4665 12.3358 33.594 12.3137C33.7507 12.2881 33.8998 12.228 34.0305 12.1377C34.1611 12.0475 34.2701 11.9293 34.3495 11.7917C34.2584 10.8784 34.6155 9.8426 34.7727 9.44141C34.4785 9.31043 34.204 9.13899 33.9571 8.93206Z" fill="white"/>
<path d="M25.2909 22.2764C25.4377 22.2345 25.9653 22.0756 26.0635 22.0071C26.1281 21.9635 26.1087 21.9172 25.9344 21.8774C25.4465 21.7803 25.1618 21.6501 25.0718 21.2224C24.9002 21.5121 24.3704 22.1197 23.913 22.4514C24.2032 22.3962 25.0768 21.9475 25.2407 21.8394C25.1116 22.2533 25.0773 22.3382 25.2909 22.2764Z" fill="white"/>
<path d="M22.9473 22.2151L22.0219 22.8652C23.0888 22.6717 24.0504 22.0119 24.9069 20.8857C25.0873 20.8079 25.2863 20.7832 25.4803 20.8145C26.8863 20.9873 26.9741 22.1572 29.421 22.2102V18.6199H21.1505V22.2151L22.0495 21.4977L22.9473 22.2151ZM27.1159 19.9741C27.1154 20.1681 27.0528 20.3568 26.9374 20.5127C26.8219 20.6686 26.6596 20.7835 26.4741 20.8405C26.1813 20.6662 25.8554 20.5547 25.5172 20.5132C25.2662 20.4751 25.0096 20.5092 24.7772 20.6115C24.631 20.6804 24.5824 20.8797 24.3589 20.8797C24.1189 20.8789 23.8889 20.7833 23.7192 20.6137C23.5494 20.444 23.4537 20.2141 23.4528 19.9741H27.1159Z" fill="white"/>
<path d="M29.4226 23.9771V23.2283H21.1505V23.9771C21.1505 26.2397 23.024 28.1126 25.286 28.1126C27.548 28.1126 29.4226 26.2391 29.4226 23.9771ZM26.9206 26.0984C26.5376 26.0984 26.2269 25.8296 26.2269 25.4974H27.6153C27.6175 25.8296 27.3068 26.0984 26.9206 26.0984ZM28.4332 24.375C28.4332 24.7061 28.1225 24.976 27.7395 24.976C27.3565 24.976 27.0447 24.7067 27.0447 24.375H28.4332ZM26.7964 24.375C26.7964 24.7061 26.4857 24.976 26.1027 24.976C25.7198 24.976 25.408 24.7067 25.408 24.375H26.7964ZM22.135 24.375H23.5234C23.5234 24.7061 23.2127 24.976 22.8298 24.976C22.4468 24.976 22.1372 24.7067 22.1372 24.375H22.135ZM23.6476 26.0984C23.2613 26.0984 22.9539 25.8296 22.9539 25.4974H24.3418C24.344 25.8296 24.0333 26.0984 23.6498 26.0984H23.6476ZM23.7751 24.375H25.1635C25.1635 24.7061 24.8528 24.976 24.4693 24.976C24.0858 24.976 23.7751 24.7067 23.7751 24.375ZM24.5934 25.4974H25.9824C25.9824 25.8285 25.6717 26.0984 25.2877 26.0984C24.9036 26.0984 24.5918 25.8296 24.5918 25.4974H24.5934Z" fill="white"/>
<path d="M19.1826 28.4513C19.1523 28.5616 19.506 28.7515 19.5998 28.7763C19.8636 28.8475 19.9707 28.4491 19.7058 28.3779C19.6125 28.3536 19.2113 28.3409 19.1826 28.4513Z" fill="white"/>
<path d="M20.5344 29.0768C20.5961 29.0411 20.6459 28.988 20.6773 28.924C20.7088 28.86 20.7206 28.7882 20.7112 28.7175C20.7019 28.6469 20.6717 28.5806 20.6247 28.527C20.5776 28.4735 20.5158 28.4351 20.4469 28.4167C20.378 28.3983 20.3053 28.4008 20.2378 28.4238C20.1703 28.4468 20.1112 28.4893 20.0679 28.5459C20.0245 28.6025 19.999 28.6707 19.9944 28.7418C19.9898 28.8129 20.0065 28.8838 20.0422 28.9455C20.0658 28.9865 20.0973 29.0224 20.1349 29.0512C20.1725 29.08 20.2153 29.1011 20.261 29.1133C20.3068 29.1255 20.3545 29.1285 20.4014 29.1223C20.4483 29.116 20.4935 29.1006 20.5344 29.0768Z" fill="white"/>
<path d="M20.1699 28.0325C20.1213 27.9487 19.8459 27.6567 19.7483 27.7136C19.6506 27.7704 19.7643 28.1551 19.8123 28.2389C19.9491 28.4762 20.3073 28.2698 20.1699 28.0325Z" fill="white"/>
<path d="M20.7398 28.1168C20.7652 28.0236 20.7768 27.6202 20.6664 27.5926C20.556 27.565 20.3662 27.9171 20.3414 28.0098C20.2724 28.2747 20.6708 28.3817 20.7398 28.1168Z" fill="white"/>
<path d="M35.1235 25.6168V12.9189H15.4487V25.6168C15.4487 31.0282 19.8745 35.4539 25.2858 35.4539C30.6972 35.4539 35.1235 31.0282 35.1235 25.6168ZM28.0793 33.2951C28.0657 32.9879 28.2733 32.8433 28.7023 32.8614C28.8888 32.0987 28.9929 31.5851 29.0146 31.3206C28.8084 31.3328 28.6038 31.2766 28.4328 31.1606C28.2618 31.0447 28.1338 30.8755 28.0688 30.6794C28.2461 29.5592 28.4852 28.88 28.7862 28.642C29.0588 28.6497 29.3314 28.6497 29.604 28.642C30.2712 29.701 30.1558 30.5917 30.1454 31.7776C29.9014 32.0619 29.492 32.547 28.917 33.2328L28.0793 33.2951ZM28.2448 31.223C28.4189 31.3402 28.609 31.4314 28.8093 31.4939C28.71 32.151 28.6602 32.4795 28.6598 32.4795C28.4195 32.1015 28.2769 31.6697 28.2448 31.223ZM28.7613 28.1326L29.0323 28.3247L29.189 27.9765L29.3446 28.3247L29.6167 28.1326L29.6084 28.5189H28.7691L28.7613 28.1326ZM30.3065 26.5367H30.706L30.6337 26.9269L31.0244 26.8551V27.2547L30.6337 27.1829L30.706 27.5731H30.3065L30.3771 27.1829L29.9908 27.2547V26.8551L30.3771 26.9269L30.3065 26.5367ZM30.5074 28.2005C30.4589 28.2005 30.4115 28.1861 30.3712 28.1592C30.3309 28.1322 30.2995 28.0939 30.2809 28.0491C30.2624 28.0043 30.2576 27.955 30.2671 27.9075C30.2766 27.86 30.3 27.8163 30.3343 27.7821C30.3686 27.7478 30.4123 27.7245 30.4599 27.7151C30.5075 27.7057 30.5567 27.7107 30.6015 27.7293C30.6463 27.7479 30.6845 27.7794 30.7114 27.8198C30.7382 27.8602 30.7525 27.9076 30.7524 27.9561C30.7524 27.9882 30.746 28.02 30.7337 28.0497C30.7214 28.0794 30.7033 28.1064 30.6806 28.1291C30.6578 28.1518 30.6308 28.1698 30.6011 28.1821C30.5714 28.1943 30.5395 28.2006 30.5074 28.2005ZM30.6453 28.3363V31.7533H30.3694V28.3363H30.6453ZM29.7751 33.2212C29.6978 33.0435 29.764 32.9103 29.9737 32.8216C29.6344 32.2339 30.5156 31.6893 31.0344 32.3128C30.6414 32.6514 30.2199 32.9553 29.7745 33.2212H29.7751ZM32.1138 31.2053C32.0777 31.1737 32.0496 31.134 32.0317 31.0896C32.0138 31.0451 32.0065 30.997 32.0106 30.9492C32.0304 30.7208 32.2396 30.7219 32.3102 30.5078C32.3809 30.2937 32.212 30.0922 31.9725 30.2699L31.6375 30.5172C31.6417 30.3613 31.6898 30.2098 31.7763 30.0801C31.8628 29.9504 31.9841 29.8478 32.1264 29.784C32.2686 29.7203 32.426 29.698 32.5803 29.7197C32.7347 29.7414 32.8798 29.8063 32.9989 29.9068C32.7421 30.3646 32.4457 30.7991 32.1132 31.2053H32.1138ZM33.7549 26.8038C33.6661 27.4153 33.0624 27.4252 32.5834 27.5256C32.4111 27.5559 32.2447 27.6129 32.09 27.6945C31.8533 27.828 31.6486 28.2016 31.9245 28.3528C32.2335 28.5222 32.3974 28.0924 32.7103 27.9737C33.0823 27.8324 33.3615 28.1426 33.5828 28.6282C33.4812 28.8986 33.3983 29.1024 33.3339 29.2396C33.2903 29.1243 33.2197 28.9019 33.1347 28.7148C32.8179 28.0206 32.7302 28.6519 32.5232 28.951C32.2948 29.2821 31.9477 29.6217 31.4819 29.9697C31.316 30.4649 31.1203 30.8372 30.8948 31.0867C30.887 30.4189 30.887 29.7514 30.8948 29.084C31.1574 28.8633 31.2937 28.5085 31.3853 28.1873C31.4604 27.9114 31.4714 27.8175 31.7164 27.5957C31.9372 27.4004 32.2076 27.2994 32.5205 27.2337C32.7412 27.1879 33.1827 27.1471 33.3482 26.9931C33.4112 26.9315 33.4503 26.8496 33.4586 26.7619C33.5171 26.3508 32.8897 26.231 32.5955 26.1808C32.3748 26.1427 32.1116 26.0765 31.9686 25.8878C31.7071 25.5412 32.0194 25.0291 32.2219 24.7355C32.3549 24.5418 32.5999 24.7112 32.4664 24.9044C32.3627 25.0561 32.0586 25.5114 32.2059 25.7084C32.2909 25.8188 32.5155 25.8651 32.6474 25.8872C32.7668 25.907 32.885 25.933 33.0017 25.965C33.4045 26.0787 33.8245 26.3165 33.7544 26.8038H33.7549ZM31.7766 15.1589C32.5746 15.1235 32.4631 14.5667 32.0845 14.5281C32.585 14.2389 32.8946 14.7224 32.8345 15.1876C33.2997 15.1269 33.7831 15.437 33.4967 15.9375C33.4575 15.559 32.9012 15.4469 32.8654 16.2449C34.852 16.2714 33.7594 19.3352 34.0976 20.9576C33.7395 20.797 33.4983 20.5614 33.5177 20.0029L33.5905 17.8684C33.6026 17.4501 33.3554 17.4203 33.3251 17.6035C33.2864 18.2221 33.2699 19.3507 33.2274 20.1696C32.8687 20.009 32.7473 19.8114 32.766 19.253L32.8251 17.3524C32.8372 16.9336 32.59 16.9038 32.5602 17.0876C32.521 17.7062 32.5166 18.6454 32.4785 19.4003C32.1204 19.2397 31.9968 19.062 32.0172 18.5036L32.0509 17.1185C32.063 16.7002 31.8511 16.6113 31.6993 16.7631C31.6434 16.8315 31.5965 16.9068 31.5597 16.9871C31.0079 18.1206 29.8976 17.0175 31.0355 16.4629C31.1157 16.4259 31.191 16.379 31.2595 16.3233C31.4113 16.1715 31.3224 15.959 30.9036 15.9717L29.519 16.0059C28.9606 16.0253 28.7823 15.9016 28.6228 15.5435C29.3772 15.5054 30.3164 15.501 30.9345 15.4618C31.1183 15.432 31.0885 15.1859 30.6696 15.1969L28.7691 15.256C28.2112 15.2759 28.0125 15.1533 27.853 14.7952C28.6708 14.7538 29.7999 14.7362 30.4185 14.6975C30.6023 14.6672 30.5719 14.4216 30.1536 14.4321L28.0191 14.5066C27.4606 14.5259 27.225 14.2859 27.065 13.9266C28.6863 14.266 31.7507 13.1706 31.7766 15.1589ZM18.6428 15.7289C18.6771 15.7632 18.7005 15.8068 18.71 15.8544C18.7196 15.9019 18.7147 15.9512 18.6962 15.996C18.6777 16.0408 18.6463 16.0791 18.606 16.1061C18.5657 16.1331 18.5183 16.1474 18.4698 16.1474C18.4213 16.1474 18.3739 16.1331 18.3336 16.1061C18.2933 16.0791 18.2619 16.0408 18.2433 15.996C18.2248 15.9512 18.22 15.9019 18.2295 15.8544C18.239 15.8068 18.2624 15.7632 18.2968 15.7289C18.3195 15.7062 18.3465 15.6881 18.3761 15.6758C18.4058 15.6635 18.4376 15.6572 18.4698 15.6572C18.5019 15.6572 18.5337 15.6635 18.5634 15.6758C18.5931 15.6881 18.6201 15.7062 18.6428 15.7289ZM17.3261 15.0408L17.6086 14.7582L17.8343 15.0844L18.0589 14.7582L18.3409 15.0408L18.0148 15.2659L18.3409 15.4911L18.0589 15.7714L17.8343 15.4453L17.6086 15.7714L17.3261 15.4894L17.6522 15.2643L17.3261 15.0408ZM16.2853 15.1903C16.4419 15.1687 16.6013 15.1949 16.7427 15.2656C16.8841 15.3364 17.0007 15.4482 17.0772 15.5865C17.1354 15.6905 17.1641 15.8085 17.16 15.9276C17.1545 16.3933 16.7621 16.837 16.6633 17.3033C16.628 17.4788 16.6142 17.6896 16.6832 17.8601C16.6995 17.9092 16.727 17.9538 16.7636 17.9903C16.8002 18.0268 16.8449 18.0542 16.894 18.0704C17.1815 18.1449 17.3907 17.7128 17.5286 17.5147C17.879 17.0136 18.2306 16.6146 19.2322 15.9281C18.9711 14.6589 19.7934 13.1871 20.9462 14.1711C20.8988 14.4095 20.7701 14.6241 20.582 14.7781C20.6804 14.8318 20.766 14.9062 20.8329 14.9963C20.8998 15.0863 20.9463 15.1897 20.9693 15.2994C20.9924 15.4092 20.9913 15.5226 20.9663 15.6319C20.9412 15.7412 20.8927 15.8438 20.8242 15.9325C21.1934 16.0915 21.4914 16.1743 21.7739 16.1196C22.0245 16.0711 22.0636 15.9971 22.2485 15.8636C22.3638 15.7808 22.4952 15.7377 22.6155 15.9458C22.2432 16.4038 21.5111 16.6062 20.4192 16.5528C19.9875 16.9377 19.4919 17.244 18.9546 17.4578C18.9667 17.8162 18.5882 18.3698 17.8189 19.1189C17.9326 19.7695 17.8713 20.2976 17.5855 20.504C17.3233 20.6927 16.9575 20.6348 17.2097 20.2192C17.378 19.9433 17.7223 19.6917 17.4304 19.3683C16.8929 18.7497 18.1042 18.4202 17.6677 17.8176C17.5871 17.9048 17.5065 17.9904 17.4276 18.0792C17.2781 18.2448 17.0607 18.3612 16.8327 18.2999C16.7476 18.275 16.6695 18.2303 16.6049 18.1694C16.5404 18.1085 16.4912 18.0331 16.4614 17.9495C16.3742 17.7332 16.383 17.4799 16.4294 17.2559C16.4665 17.0944 16.5221 16.9378 16.5949 16.789C16.7053 16.544 16.9155 16.1963 16.9194 15.9254C16.9227 15.8368 16.8978 15.7494 16.8482 15.6759C16.777 15.7119 16.6967 15.726 16.6175 15.7164C16.5383 15.7069 16.4637 15.6741 16.4031 15.6223C16.3424 15.5704 16.2985 15.5018 16.2768 15.425C16.255 15.3483 16.2565 15.2668 16.2809 15.1909L16.2853 15.1903ZM19.9308 17.9606C19.7514 18.5571 18.8928 18.8816 18.315 18.9495C18.7465 18.4734 18.9956 18.0211 19.0622 17.5925C19.1494 17.8171 19.1394 17.9859 19.071 18.2999C19.4921 18.242 19.7382 17.7746 19.9308 17.9606ZM21.0058 32.5093C21.6091 32.5343 22.0831 32.4 22.4279 32.1065C23.3737 32.5534 21.7817 33.7526 21.0058 32.5093ZM20.6697 32.1953C20.625 32.4712 20.5908 32.7819 20.5593 33.0738L20.2459 32.8415C20.2818 32.5695 20.3182 32.2996 20.3419 32.022C20.2972 31.9922 20.252 31.9602 20.2073 31.9254C20.1438 32.2808 20.1521 32.4845 20.1311 32.7532L19.5903 32.3515C19.6852 32.2566 19.7746 32.2117 19.8585 32.2168C19.885 32.0408 19.9076 31.8548 19.9275 31.6606C19.6764 31.3846 19.4518 31.0099 19.2763 30.5166L19.3392 31.3068L19.2807 31.2831C18.9955 31.1811 18.7571 30.9788 18.61 30.714C18.4629 30.4492 18.4171 30.14 18.4811 29.8439C18.1927 29.7513 17.9478 29.557 17.792 29.2972C17.6363 29.0374 17.5803 28.7298 17.6346 28.4317L17.6429 28.3694L18.2962 28.8186C17.9563 28.4196 17.7444 28.0383 17.6307 27.6834C17.4523 27.6029 17.2803 27.5293 17.1147 27.4627C17.0779 27.5363 16.9946 27.5915 16.8648 27.6283C16.8327 27.3557 16.8096 27.1713 16.7864 26.9594C17.0309 27.0781 17.2041 27.1857 17.5441 27.3082C17.5352 27.253 17.5303 27.1978 17.527 27.1426C17.2748 27.0246 17.0231 26.9219 16.7693 26.816L16.7246 26.4297C16.9928 26.5478 17.2819 26.6747 17.5408 26.7729C17.7107 25.5484 19.0721 24.9259 19.5616 25.5804C19.6422 25.6883 19.6834 25.8206 19.6785 25.9552C19.6736 26.0898 19.6228 26.2186 19.5346 26.3204C19.5682 25.954 18.9308 25.5351 18.8359 26.3927C18.5804 28.6906 18.4805 29.8428 18.4805 29.8428C18.4805 29.8428 19.529 30.3323 21.6459 31.2599C22.4367 31.6059 22.392 30.8449 22.0587 30.691C22.1909 30.6655 22.3278 30.6861 22.4466 30.7492C22.5655 30.8124 22.6592 30.9143 22.7121 31.0381C23.0354 31.793 21.8153 32.6605 20.6697 32.1953ZM18.4971 25.2973C18.0703 25.4492 17.7172 25.7925 17.4376 26.327C16.7483 25.0352 18.5832 24.256 18.4971 25.2989V25.2973ZM19.6962 27.6233C19.9218 27.4931 20.1809 27.4328 20.4408 27.4498C20.7006 27.4669 20.9496 27.5607 21.1562 27.7193C21.3627 27.8778 21.5176 28.0941 21.6013 28.3407C21.685 28.5873 21.6936 28.8532 21.6262 29.1048C21.5587 29.3563 21.4182 29.5822 21.2223 29.7538C21.0265 29.9255 20.7842 30.0352 20.526 30.0692C20.2678 30.1031 20.0053 30.0597 19.7717 29.9445C19.5382 29.8292 19.3441 29.6473 19.2139 29.4217C19.04 29.1194 18.993 28.7605 19.0834 28.4236C19.1739 28.0867 19.3943 27.7995 19.6962 27.625V27.6233ZM20.1261 23.9756V23.2284H15.9509V22.2042H20.1261V17.5958H24.7737V13.4211H25.798V17.5958H30.4467V22.2042H34.6208V23.2284H30.4467V23.9773C30.4467 26.6322 28.3905 28.85 25.798 29.1094V34.938C25.6291 34.9473 25.458 34.9523 25.2858 34.9523C25.1137 34.9523 24.9437 34.9473 24.7737 34.938V29.1111C22.1823 28.85 20.1261 26.6322 20.1261 23.9773V23.9756Z" fill="white"/>
<path d="M19.0709 18.3022C19.0422 18.3065 19.1021 18.3022 19.0709 18.3022V18.3022Z" fill="white"/>
<path d="M21.087 28.581C21.1704 28.5325 21.4628 28.2571 21.4054 28.1583C21.348 28.0595 20.964 28.1754 20.8801 28.2234C20.8327 28.2509 20.7981 28.296 20.784 28.349C20.7698 28.4019 20.7773 28.4583 20.8048 28.5057C20.8322 28.5531 20.8774 28.5877 20.9303 28.6018C20.9832 28.6159 21.0396 28.6085 21.087 28.581Z" fill="white"/>
<path d="M20.5385 29.4982C20.587 29.5815 20.8624 29.8734 20.9612 29.8166C21.06 29.7597 20.9452 29.3751 20.8966 29.2912C20.7592 29.0545 20.4016 29.2609 20.5385 29.4982Z" fill="white"/>
<path d="M19.9672 29.4135C19.9424 29.5068 19.9303 29.9102 20.0406 29.9372C20.151 29.9643 20.3408 29.6139 20.3662 29.5206C20.4363 29.2557 20.0379 29.1492 19.9672 29.4135Z" fill="white"/>
<path d="M21.0025 29.1522C21.0958 29.177 21.4992 29.1891 21.5268 29.0788C21.5544 28.9684 21.2028 28.7786 21.1096 28.7537C20.8452 28.6842 20.7398 29.0815 21.0025 29.1522Z" fill="white"/>
<path d="M19.622 28.9494C19.5381 28.998 19.2462 29.2734 19.3036 29.3721C19.319 29.4003 19.3621 29.4108 19.4139 29.4108C19.5565 29.4022 19.6963 29.3672 19.8262 29.3076C19.8708 29.2788 19.9026 29.234 19.9151 29.1824C19.9276 29.1308 19.9197 29.0764 19.8932 29.0304C19.8667 28.9844 19.8236 28.9503 19.7727 28.9353C19.7218 28.9202 19.667 28.9253 19.6198 28.9494H19.622Z" fill="white"/>
<path d="M28.9937 29.5909L29.0488 29.8028C29.0682 29.879 29.1129 29.9452 29.1918 29.9452C29.2707 29.9452 29.3154 29.8784 29.3336 29.8028L29.3888 29.5904C29.6719 29.5904 29.7138 29.5733 29.7635 29.3145H28.6184C28.6686 29.5744 28.7139 29.592 28.9937 29.5909Z" fill="white"/>
<path d="M33.0685 2.476C33.0766 2.4826 33.0842 2.4898 33.0912 2.49753C33.5437 2.92244 33.957 3.1956 34.3223 3.36557C34.3375 3.3703 34.3522 3.37678 34.3659 3.38489C34.8979 3.62273 35.3256 3.6426 35.6241 3.60066C36.1627 3.5245 36.4259 3.23313 36.4629 3.11172C36.7223 2.27072 36.3525 1.66093 35.3686 1.29948C34.3201 0.91319 32.5211 0.878976 31.7358 0.883391C32.1242 1.4586 32.5708 1.99228 33.0685 2.476Z" fill="white"/>
<path d="M35.6545 12.937H35.6584C35.8463 12.9714 36.0399 12.9554 36.2196 12.8907C36.6523 12.7284 36.873 12.2837 36.937 12.1352C36.7295 11.2981 36.9039 10.3539 36.9801 10.0145C36.3597 9.94154 35.749 9.80128 35.159 9.59619C35.0001 10.0068 34.6121 11.1364 34.7975 11.984C34.8278 12.1274 34.8774 12.2661 34.9449 12.3962H35.6479V12.9348L35.6545 12.937Z" fill="white"/>
<path d="M36.0976 17.0403C36.6335 17.1148 37.3167 16.8301 37.4712 15.7805C37.6152 14.8043 37.1169 13.1355 37.0126 12.8005C36.8429 13.0143 36.6198 13.1796 36.3658 13.2795C36.2017 13.3407 36.0278 13.3719 35.8526 13.3717C35.7881 13.3717 35.66 13.3579 35.66 13.3579L35.6633 16.8102C35.7757 16.9366 35.9299 17.0183 36.0976 17.0403Z" fill="white"/>
<path d="M37.1077 42.9397C35.8936 43.9766 30.2323 46.5443 30.0441 44.8298C30.0601 44.2305 31.7719 44.4677 32.2614 44.4677C33.2393 44.4677 33.2393 42.9778 32.2614 42.9778C30.4323 43.3404 28.5786 43.5652 26.7159 43.6505V45.4633C27.8301 45.4134 28.9409 45.3063 30.0441 45.1426V46.6392C30.0441 48.6308 36.9669 45.4898 38.309 44.3458L36.5906 44.572L37.1077 42.9397Z" fill="white"/>
<path d="M38.9776 9.71417C38.4054 9.17667 38.0092 8.61049 37.9545 7.92455C37.4116 7.6435 36.9218 7.27002 36.507 6.82087C35.6208 5.83749 35.4585 4.54673 35.4293 4.03131C35.4111 4.03131 35.3929 4.03131 35.3741 4.03131C34.9947 4.02599 34.6203 3.94435 34.2732 3.79126C33.5381 4.2984 33.0978 5.04118 33.0382 5.89819C32.967 6.89757 33.4123 7.91461 34.2279 8.61876C35.3565 9.59056 37.7465 9.71858 38.9776 9.71417Z" fill="white"/>
<path d="M38.533 13.3016C38.8525 13.3683 39.0848 13.2971 39.1908 13.216C39.5528 12.9324 39.6041 12.6123 39.6102 12.513C39.1041 11.7244 38.8707 10.5589 38.7984 10.1301C38.4005 10.1301 37.9155 10.1119 37.3929 10.0623C37.3211 10.3713 37.0618 11.6593 37.5032 12.4799C37.8205 13.0742 38.2852 13.2497 38.533 13.3016Z" fill="white"/>
<path d="M37.8632 15.9332C37.9991 16.2243 38.2312 16.4595 38.5205 16.5993C38.7108 16.6903 39.138 16.7301 39.4945 16.5353C39.7974 16.3697 39.9757 16.0745 40.0264 15.6595C40.1296 14.8113 39.8002 13.7705 39.6495 13.3528C39.5866 13.4211 39.5181 13.484 39.4448 13.541C39.2792 13.6718 39.0425 13.7407 38.7826 13.7407C38.6713 13.7404 38.5604 13.7287 38.4515 13.706C38.1216 13.6351 37.8172 13.4756 37.5713 13.2446C37.7562 13.9416 37.9957 15.0657 37.8814 15.841C37.8754 15.873 37.8693 15.9023 37.8632 15.9332Z" fill="white"/>
<path d="M35.5104 0.910916C37.183 1.52456 37.0109 2.73972 36.8591 3.23361C36.7692 3.52278 36.3956 3.85333 35.8415 3.97805C35.8658 4.41952 36.0071 5.64516 36.8144 6.54245C37.1509 6.90792 37.5429 7.21801 37.976 7.46127C38.8971 7.39891 39.4533 7.51645 39.641 7.8161C39.7591 7.80751 39.8736 7.77177 39.9756 7.71166C40.0777 7.65155 40.1644 7.56869 40.2292 7.46955C40.6602 6.81065 40.0637 6.42988 39.3954 6.48341C39.3396 6.48768 39.2844 6.46971 39.2418 6.43342C39.1992 6.39714 39.1727 6.34547 39.168 6.28971C39.1432 5.96964 40.6265 5.7318 40.9946 5.9586C41.4222 5.2931 41.6748 4.53044 41.7291 3.74131C40.067 2.1704 38.171 1.27771 36.0413 1.06322C36.1031 -0.031076 34.1948 -0.366043 31.9786 0.470547H31.9819C32.8743 0.473307 34.4928 0.540631 35.5104 0.910916ZM37.6488 2.5234C38.5102 2.5234 39.2331 2.86885 39.9665 3.4389L38.6807 3.23527C38.5818 3.36058 38.4388 3.44355 38.2809 3.46737C38.123 3.49118 37.9619 3.45404 37.8304 3.36349C37.6988 3.27294 37.6067 3.13576 37.5725 2.97975C37.5384 2.82375 37.5649 2.6606 37.6466 2.5234H37.6488Z" fill="white"/>
<path d="M39.2188 10.1275C39.3181 10.6793 39.6343 12.1334 40.2904 12.6853C40.8081 13.119 41.3047 13.1118 41.5536 13.0677C41.8748 13.0125 42.0668 12.8591 42.133 12.7454C42.2026 12.6264 42.249 12.4954 42.2699 12.3591C41.3378 11.4762 40.2833 10.798 39.4467 10.1187L39.2188 10.1275Z" fill="white"/>
<path d="M41.3238 13.5009C40.9458 13.4976 40.5769 13.3841 40.2626 13.1742C40.4121 13.6156 40.8199 14.6354 41.5191 15.067C42.4136 15.6188 43.1653 15.1293 43.37 14.8214C43.5355 14.5725 43.6012 14.2696 43.6244 14.0152C43.3378 13.5392 42.9979 13.0974 42.6112 12.6985C42.5792 12.7871 42.5395 12.8728 42.4926 12.9545C42.3414 13.2122 42.0174 13.4071 41.6262 13.4749C41.5263 13.4923 41.4251 13.501 41.3238 13.5009Z" fill="white"/>
<path d="M40.8042 23.0943C40.998 24.1384 41.278 25.1647 41.6413 26.1625C42.1496 27.5201 43.1479 29.4333 44.8917 28.9736L41.0233 22.9453C40.9515 22.995 40.8787 23.0452 40.8042 23.0943Z" fill="white"/>
<path d="M47.7874 30.1239L42.3954 21.7205C42.0866 22.0713 41.7464 22.3931 41.3789 22.6818L45.6998 29.4352C45.9441 29.7394 46.2712 29.9663 46.6417 30.0885C47.0122 30.2108 47.4101 30.223 47.7874 30.1239Z" fill="white"/>
<path d="M47.9546 30.7623C47.3795 30.9137 46.7704 30.8692 46.2234 30.636C44.1706 31.467 41.3672 29.5516 40.1366 23.3953L38.6577 24.0746C38.6941 25.1038 38.6025 26.6633 37.9033 27.4805C37.5557 27.8872 37.1948 28.0627 37.3233 27.7642C37.8534 26.5454 38.0879 25.2186 38.0076 23.8919C38.003 23.8274 38.0183 23.7631 38.0515 23.7076C38.0846 23.6522 38.1341 23.6082 38.193 23.5818C39.1472 23.1436 40.0693 22.7954 40.9048 22.147C42.9196 20.5743 43.4951 18.4359 44.3676 15.9322C44.2724 15.4709 44.1243 15.0223 43.9261 14.5951C43.8759 14.757 43.8035 14.9111 43.7109 15.0531C43.478 15.4018 42.9609 15.7307 42.3363 15.7307C41.9686 15.7269 41.6094 15.6196 41.2999 15.4212C40.9053 15.1783 40.5974 14.7926 40.3618 14.4036C40.4401 14.823 40.4848 15.2865 40.4324 15.712C40.3491 16.4029 39.9816 16.739 39.6885 16.9001C39.4508 17.0266 39.1853 17.0921 38.916 17.0905C38.7174 17.0942 38.5204 17.0546 38.3387 16.9746C38.0911 16.856 37.8739 16.6821 37.7041 16.4663C37.4061 17.1622 36.83 17.4668 36.2605 17.4668C36.1093 17.4668 35.7324 17.4277 35.6424 17.3228V25.6313C35.6417 27.0122 35.364 28.3789 34.8259 29.6506C34.2878 30.9224 33.5002 32.0733 32.5096 33.0354C36.0105 34.8724 36.112 39.8291 32.62 38.1123C32.4677 38.0246 32.297 37.9738 32.1215 37.9641C31.946 37.9544 31.7707 37.986 31.6097 38.0563C31.4487 38.1267 31.3064 38.2339 31.1943 38.3693C31.0823 38.5046 31.0035 38.6644 30.9645 38.8358L31.2741 39.0306C31.3788 38.8563 31.5229 38.709 31.6949 38.6005C31.8669 38.492 32.0619 38.4253 32.2643 38.4058C32.4668 38.3863 32.6709 38.4146 32.8604 38.4883C33.05 38.562 33.2195 38.6791 33.3556 38.8302C33.2039 38.7319 33.0307 38.6715 32.8507 38.6543C32.6707 38.6372 32.4892 38.6636 32.3217 38.7316C32.1541 38.7995 32.0054 38.9068 31.8881 39.0445C31.7709 39.1821 31.6886 39.346 31.6482 39.5223C31.7482 39.5928 31.852 39.658 31.9589 39.7176C32.0634 39.5432 32.2075 39.3957 32.3794 39.2871C32.5513 39.1785 32.7463 39.1117 32.9487 39.0922C33.1511 39.0726 33.3553 39.1009 33.5448 39.1746C33.7343 39.2484 33.9039 39.3655 34.0399 39.5167C33.8882 39.4182 33.715 39.3578 33.535 39.3405C33.3549 39.3233 33.1734 39.3498 33.0058 39.4178C32.8382 39.4858 32.6896 39.5933 32.5724 39.7311C32.4553 39.8689 32.3732 40.033 32.333 40.2093C32.6468 40.4355 33.0035 40.5951 33.3813 40.6784C33.759 40.7616 34.1498 40.7668 34.5296 40.6934C34.9094 40.6201 35.2702 40.4698 35.5898 40.2519C35.9093 40.034 36.181 39.753 36.388 39.4262C36.5825 39.5124 36.8005 39.5299 37.0063 39.4758C37.212 39.4218 37.3933 39.2994 37.5203 39.1288C38.9877 36.1787 38.3122 37.5434 38.9827 36.2592C36.3383 35.3277 36.7262 30.6663 38.5694 29.6813C38.2968 29.9997 37.7891 31.7358 37.7968 32.9598C37.8123 35.0402 40.3789 34.3079 40.9313 37.2641C41.2204 38.8093 40.3066 40.3224 38.5948 40.0355C38.4062 39.9907 38.2097 39.9909 38.0211 40.036C37.8326 40.081 37.6573 40.1697 37.5092 40.2949C37.3612 40.4201 37.2447 40.5783 37.169 40.7567C37.0933 40.9352 37.0605 41.1289 37.0734 41.3224L37.4596 41.4327C37.5154 41.2156 37.6213 41.0145 37.7687 40.8456C37.9162 40.6768 38.1012 40.5448 38.3089 40.4604C38.5166 40.3759 38.7412 40.3413 38.9647 40.3593C39.1882 40.3773 39.4043 40.4475 39.5958 40.5641C39.4046 40.508 39.2026 40.4987 39.007 40.5373C38.8114 40.5759 38.628 40.6611 38.4724 40.7857C38.3168 40.9102 38.1935 41.0705 38.1131 41.2529C38.0326 41.4353 37.9974 41.6344 38.0104 41.8334C38.1371 41.8768 38.2661 41.9137 38.3967 41.9437C38.4523 41.7265 38.5582 41.5254 38.7056 41.3565C38.8531 41.1875 39.0381 41.0555 39.2458 40.971C39.4535 40.8865 39.6781 40.8518 39.9016 40.8698C40.1251 40.8878 40.3413 40.958 40.5328 41.0746C40.3416 41.0185 40.1397 41.0094 39.9442 41.048C39.7487 41.0866 39.5654 41.1718 39.4098 41.2964C39.2543 41.421 39.1311 41.5812 39.0507 41.7636C38.9703 41.9459 38.935 42.145 38.948 42.3438C39.3508 42.4839 39.7781 42.54 40.2035 42.5088C40.6288 42.4776 41.0433 42.3597 41.4214 42.1624C41.7996 41.965 42.1333 41.6924 42.4021 41.3612C42.671 41.0301 42.8692 40.6475 42.9847 40.2369C43.2176 40.2663 43.4535 40.2159 43.654 40.0938C43.8545 39.9717 44.0076 39.7852 44.0884 39.5648V34.2108C43.5189 34.2131 42.9567 34.0828 42.4464 33.83C41.9361 33.5773 41.4917 33.2092 41.1484 32.7548C40.8051 32.3005 40.5724 31.7724 40.4687 31.2125C40.3651 30.6525 40.3932 30.0761 40.5511 29.529C42.7882 32.1706 46.0143 32.8317 48.0489 30.7767L48.0142 30.7436C47.9954 30.7507 47.975 30.7568 47.9546 30.7623Z" fill="white"/>
<path d="M48.6339 26.2564L49.6117 27.7801C49.9233 26.5395 49.92 25.1373 49.6018 23.5734C49.1112 21.1607 44.3157 13.1436 47.0633 13.159C47.0643 13.4004 47.1538 13.633 47.3149 13.8127C47.476 13.9925 47.6974 14.1068 47.9372 14.134C48.177 14.1612 48.4185 14.0995 48.6158 13.9604C48.8131 13.8214 48.9525 13.6148 49.0075 13.3798C49.2879 12.0852 49.1751 10.7364 48.6834 9.50637C48.1918 8.27638 47.3438 7.22139 46.2483 6.47681C46.7046 7.7499 45.7334 9.62671 45.4376 12.1161C44.7925 17.5556 48.9677 21.366 48.6339 26.2564Z" fill="white"/>
<path d="M43.677 19.751C43.4086 20.3123 43.0839 20.845 42.708 21.3408L48.2888 30.0643C48.5862 30.435 48.9847 30.7115 49.436 30.8604C49.8873 31.0093 50.3721 31.0241 50.8317 30.9031L43.677 19.751Z" fill="white"/>
</svg>
